<?xml version="1.0" encoding="utf-8"?>
<!-- Generator: Adobe Illustrator 16.0.0, SVG Export Plug-In . SVG Version: 6.00 Build 0)  -->
<!DOCTYPE svg PUBLIC "-//W3C//DTD SVG 1.1//EN" "http://www.w3.org/Graphics/SVG/1.1/DTD/svg11.dtd">
<svg version="1.1" xmlns="http://www.w3.org/2000/svg" xmlns:xlink="http://www.w3.org/1999/xlink" x="0px" y="0px" width="960px"
	 height="560px" viewBox="0 0 960 560" enable-background="new 0 0 960 560" xml:space="preserve">
<g id="Layer_1">
	<g>
		<path fill="none" d="M500.74,356.5c-135.838,0-271.673-0.01-407.509,0.068c-2.755,0.002-3.378-0.621-3.376-3.377
			c0.081-116.604,0.081-233.21,0-349.816C89.853,0.621,90.476,0,93.231,0c271.671,0.073,543.343,0.073,815.015,0
			c2.755,0,3.377,0.621,3.376,3.375c-0.08,116.606-0.08,233.212,0,349.816c0.001,2.756-0.621,3.379-3.376,3.377
			C772.411,356.49,636.574,356.5,500.74,356.5z M428.062,142.165c0.047,2.421,0.134,4.681-0.35,7.106
			c-1,5.027-1.159,10.339,0.086,15.304c1.144,4.566,3.132,9.08,7.27,11.991c8.251,5.803,17.026,4.818,25.816,1.614
			c10.779-3.93,16.358-14.335,25.235-20.696c2.03-1.452,0.58-6.25,5.023-6.138c0.085,0.002,0.36-0.718,0.251-0.976
			c-0.729-1.714,0.905-2.674,1.242-4.043c0.35-1.417,1.751-3.605,2.56-2.72c1.249,1.366,4.505,1.134,3.846,4.218
			c-0.327,1.54-0.511,3.125-0.613,4.7c-0.364,5.669-2.521,11.213-1.207,16.999c0.548,2.409,0.635,4.838,0.516,7.302
			c-0.272,5.667,1.389,11.086,4.269,15.644c2.76,4.37,8.141,6.08,13.025,4.965c4.369-0.997,8.109-3.947,10.555-8.335
			c2.871-5.154,3.66-11.406,8.246-15.646c0.693-0.64,0.712-1.612,0.321-2.409c-0.948-1.926,0.15-3.158,1.521-3.992
			c1.906-1.16,2.846-2.424,2.169-4.767c-0.295-1.017,0.121-2.562,1.376-2.614c1.625-0.068,1.169,1.57,1.15,2.523
			c-0.105,5.377-0.527,10.761,0.096,16.123c0.592,5.097,2.379,10.027,7.544,11.632c4.688,1.456,10.047,0.898,14.42-4.689
			c1.602-2.046,2.236-4.723,3.71-6.643c4.521-5.888,6.438-12.553,7.149-19.709c0.123-1.249,0.17-2.432,1.679-2.126
			c3.372,0.682,4.259-1.944,5.319-3.99c1.942-3.749,3.184-7.664,6.321-10.987c2.131-2.258,4.38-5.67,5.245-8.44
			c1.298-4.162,3.965-5.438,7.34-7.454c0,1.741-0.025,3.071,0.005,4.4c0.24,10.995-1.732,21.975-0.043,32.989
			c0.927,6.031,3.911,10.747,8.75,14.179c3.026,2.149,6.725,1.723,9.213-0.708c6.14-6.003,13.139-11.401,16.106-20.017
			c0.662-1.916,1.897-2.603,3.407-0.552c1.102,1.496,2.318,3.102,4.083,3.589c7.877,2.173,17.515,2.604,23.693-4.914
			c1.005-1.225,1.79-2.627,2.761-3.885c0.8-1.039,1.569-2.755,2.985-2.312c1.609,0.502,1.001,2.352,0.754,3.569
			c-1.928,9.517-0.67,18.973,0.358,28.443c0.216,1.988,0.923,3.393,3.221,2.899c1.79-0.384,2.283,0.419,2.707,2.008
			c0.757,2.826,2.034,3.062,3.908,0.962c2.927-3.278,4.303-14.931,2.676-19.033c-1.851-4.665-1.718-9.848,0.281-14.148
			c1.829-3.935,2.853-8.158,1.898-11.661c-1.517-5.553,1.424-9.915,2.477-14.545c1.328-5.831,3.413-11.6,4.881-17.487
			c1.115-4.476,1.555-9.213,3.945-13.249c4.593-7.754,4.552-8.206-3.359-12.393c-4.246-2.247-7.742-0.874-9.288,3.655
			c-1.104,3.239-2.089,6.503-3.49,9.651c-1.161,2.611-2.413,2.475-4.502,1.179c-7.292-4.521-11.858-4.224-18.83,0.851
			c-4.123,3.002-6.914,7.097-10.037,11.031c-7.331,9.238-12.338,19.6-13.786,31.08c-0.969,7.688-4.281,13.078-9.791,17.785
			c-1.392,1.19-2.557,2.646-3.935,3.855c-1.135,0.992-1.99,3.045-3.799,2.315c-1.796-0.724-2.175-2.745-2.545-4.595
			c-2.723-13.638-1.174-27.258,0.164-40.873c0.143-1.438,0.857-2.811,1.123-4.248c0.805-4.363-1.382-8.456-5.615-11.043
			c-3.724-2.278-6.256,0.029-8.804,2.164c-2.249,1.883-4.477,3.812-6.553,5.882c-12.914,12.887-21.19,28.962-30.323,44.433
			c-2.817,4.771-5.195,9.804-7.87,14.901c-1.373-1.414-0.973-2.705-0.927-3.846c0.321-7.909,0.279-15.782,1.159-23.731
			c1.46-13.139,5.647-25.517,8.438-38.268c0.731-3.335,2.175-6.395,3.501-9.509c1.514-3.55-0.433-8.31,3.827-10.942
			c0.302-0.188,0.326-0.89,0.405-1.366c1.035-6.219,5.293-11.423,5.466-18.122c1.156,1.441,1.912,3.093,3.794,2.83
			c3.266-0.456,6.546-0.872,9.109-3.383c1.808-1.769,2.065-3.726,1.476-6.045c-0.578-2.273-1.812-3.665-4.238-3.9
			c-1.46-0.141-2.91-0.4-4.361-0.625c-1.521-0.235-2.109-1.045-1.632-2.585c0.721-2.327,1.463-4.652,2.069-7.009
			c1.762-6.85,3.97-13.593,4.962-20.634c0.281-1.99-0.212-3.083-2.391-3.064c-3.676,0.032-7.351,0.007-11.024,0.031
			c-1.322,0.008-2.339,0.459-2.812,1.871c-2.249,6.715-4.309,13.458-5.678,20.442c-1.128,5.775-1.496,12.402-10.093,12.8
			c-1.719,0.079-3.314,1.804-5.11-0.043c-0.223-0.228-1.059-0.164-1.393,0.071c-2.664,1.875-5.639,1.111-8.539,1.179
			c-4.593,0.108-5.32-0.626-4.138-5.139c1.366-5.216,3.495-10.176,5.748-15.055c1.853-4.019,1.413-5.249-2.939-6.529
			c-1.049-0.308-2.13-0.667-3.048-1.244c-3.166-1.994-5.725-0.848-7.668,1.71c-3.412,4.495-6.355,9.281-7.586,14.925
			c-0.781,3.585-1.56,7.177-2.554,10.706c-0.671,2.387-0.402,6.297-5.006,4.002c-0.403-0.2-1.133,0.357-1.726,0.418
			c-2.918,0.301-5.612,2.645-8.131,2.396c-3.02-0.297-5.594,0.133-8.121,1.242c-2.148,0.942-3.85,1.808-6.564,1.912
			c-3.622,0.139-8.572-0.01-11.118,4.304c-0.337,0.574-0.958,0.588-1.625,0.501c-4.569-0.592-7.43,1.653-7.99,6.14
			c-0.276,2.206,0.629,3.161,2.708,2.413c7.376-2.654,15.116-3.953,22.606-6.181c5.849-1.74,11.825-2.943,17.917-3.538
			c1.97-0.192,2.928,0.305,2.159,2.401c-3.624,9.885-5.883,20.144-8.17,30.379c-1.143,5.111-2.904,10.069-3.378,15.372
			c-0.202,2.25,0.343,5.11-2.149,7.076c-0.221-0.622-0.398-0.946-0.444-1.289c-0.181-1.296,0.604-2.33,0.974-3.483
			c0.474-1.489,0.419-3.199-1.029-3.914c-1.348-0.666-2.051,0.906-2.758,1.853c-0.509,0.685-0.971,1.422-1.34,2.192
			c-7.666,15.967-19.52,28.616-32.263,40.525c-3.224,3.013-6.927,5.54-11.177,6.911c-2.776,0.895-5.91,1.713-7.99-1.39
			c-1.927-2.87-2.911-6.111-3.375-9.595c-0.719-5.398,0.011-10.734,0.111-16.1c0.063-3.5,1.553-4.821,4.933-4.66
			c4.004,0.19,7.628-1.307,10.357-4.019c7.877-7.826,13.795-16.739,14.706-28.299c0.559-7.112-3.598-10.852-9.005-14.059
			c-4.356-2.585-7.98-0.609-11.648,1.463c-2.378,1.345-4.35,3.211-5.959,5.388c-3.39,4.584-6.6,9.268-10.204,13.732
			c-7.739,9.585-14.53,19.929-21.892,29.828c-5.624,7.563-11.634,14.896-19.757,19.915c-6.521,4.029-10.096,2.206-11.927-5.387
			c-0.144-0.595-0.355-1.197-0.36-1.798c-0.035-5.217-2.354-10.426-0.073-15.663c0.188-0.433,0.271-0.981,0.204-1.446
			c-0.622-4.307,2.105-5.303,5.492-5.445c3.451-0.146,6.378-1.357,9.046-3.519c6.529-5.292,10.86-12.124,13.401-19.977
			c1.633-5.055,2.737-10.625-2.863-14.237c-4.739-3.058-9.854-3.552-15.268-1.177c-4.826,2.116-8.068,5.831-11.17,9.78
			c-0.883,1.123-2.106,2.673-1.211,3.936c0.971,1.368,2.141-1.202,3.702-0.535c-0.669,2.061-2.097,4.148-3.747,4.589
			c-3.665,0.982-3.768,0.807-5.454,4.044c-1.507,2.892-1.772,6.067-2.638,9.1c-2.771,9.7-4.431,19.536-3.619,29.695
			c0.886,11.071,11.077,20.632,22.23,20.839c13.256,0.245,21.694-7.946,28.949-17.301
			C421.761,152.332,425.429,147.575,428.062,142.165z M335.707,136.954c-0.341,2.71-0.811,5.412-1.002,8.133
			c-1.077,15.396-3.815,30.559-7.885,45.374c-5.661,20.605-15.014,39.567-29.058,55.846c-9.838,11.404-21.371,20.494-37.042,22.439
			c-5.275,0.655-10.009,0.223-13.577-4.908c-2.154-3.094-3.287-6.171-3.683-9.742c-0.149-1.352-0.318-2.853-1.973-3.158
			c-1.849-0.338-2.066,1.256-2.568,2.494c-2.837,6.994-0.018,13.594,1.477,20.255c0.36,1.6,2.07,2.312,3.45,3.134
			c3.463,2.058,7.456,2.63,11.233,3.026c10.781,1.137,20.901-1.658,30.157-7.119c9.436-5.566,17.45-12.834,24.702-21.103
			c9.041-10.305,15.883-21.915,21.762-34.166c3.532-7.364,6.348-15.009,8.719-22.846c2.368-7.824,4.864-15.568,6.158-23.694
			c1.051-6.598,2.189-13.173,3.121-19.799c1.157-8.226,2.086-16.439,2.647-24.723c0.462-6.822,0.773-13.729,2.146-20.395
			c1.137-5.515,0.472-9.411-4.517-12.527c-2.338-1.46-4.548-2.082-6.857-1.006c-2.379,1.107-3.924,3.007-4.12,6.006
			c-0.397,6.09-1.212,12.151-1.732,18.234c-0.298,3.49-0.817,6.648-4.082,8.895c-1.267,0.872-1.932,2.79-2.588,4.351
			c-4.038,9.61-12.069,15.87-19.244,22.794c-2.286,2.205-5.624,1.028-5.975-1.703c-0.418-3.269-0.83-6.599-0.661-9.872
			c0.622-12.099,3.732-23.753,7.108-35.295c2.033-6.951,1.389-8.766-5.644-10.847c-0.703-0.208-1.48-0.262-2.109-0.6
			c-2.214-1.185-3.841-0.188-4.338,1.774c-2.027,8.021-7.206,14.399-10.886,21.55c-5.615,10.913-11.641,21.562-20.763,30.044
			c-1.455,1.352-2.99,4.122-4.83,3.083c-1.584-0.895-0.456-3.818-0.145-5.851c1.113-7.251,3.196-14.254,5.298-21.265
			c1.881-6.277,2.757-12.888,6.437-18.541c1.686-2.587,0.99-4.587-1.519-6.188c-4.27-2.722-8.625-1.542-11.062,2.787
			c-4.851,8.62-6.794,18.278-10.142,27.434c-3.301,9.031-4.806,18.166-4.15,27.688c0.514,7.46,10.925,13.327,17.078,9.254
			c8.442-5.589,16.721-11.558,21.412-21.059c0.376-0.763,0.783-1.759,1.783-1.558c1.099,0.222,0.886,1.368,0.844,2.163
			c-0.187,3.493,0.766,6.804,1.553,10.131c1.573,6.643,7.341,9.078,12.431,12.155c0.354,0.214,1.017,0.178,1.427,0.002
			c3.096-1.321,6.479-1.649,9.329-3.985c2.259-1.853,3.896-4.351,6.136-5.908c4.348-3.022,6.342-8.038,10.449-11.167
			c0.664-0.506,1.128-1.762,1.075-2.634C331.288,141.023,333.744,139.213,335.707,136.954z M184.659,77.637
			c0.061-1.362,0.089-2.586,0.183-3.805c0.038-0.48,0.176-0.967,0.351-1.419c5.007-12.988,12.595-24.213,23.395-33.036
			c3.563-2.911,7.453-5.6,11.916-7.15c3.211-1.115,6.308,0.734,6.781,4.082c0.323,2.282-0.01,4.301-2.193,5.789
			c-2.472,1.684-2.461,3.765-0.289,5.797c3.222,3.017,11.236,2.804,14.32-0.364c5.661-5.81,5.936-12.455,0.354-18.024
			c-4.788-4.776-9.904-8.992-17.572-7.738c-3.219,0.527-6.602,0.219-9.9,0.057c-4.285-0.209-7.762,1.591-11.259,3.758
			c-6.339,3.93-11.164,9.507-16.21,14.786c-7.93,8.292-14.395,17.617-17.795,28.758c-2.391,7.836-1.563,15.208,3.452,21.895
			c3.946,5.26,8.951,9.276,14.488,12.776c4.022,2.543,7.855,5.411,11.608,8.344c1.623,1.269,3.313,3.058,0.731,5.09
			c-5.586,4.398-12.266,7.117-17.364,12.435c-3.631,3.788-8.505,6.404-12.365,10.167c-4.381,4.271-8.12,9.056-12.016,13.739
			c-7.813,9.391-14.299,19.457-17.267,31.465c-1.476,5.972,3.6,13.919,9.22,16.443c6.07,2.724,12.375,2.311,18.628,2.95
			c4.18,0.426,8.467-0.169,12.22-1.456c8.474-2.903,17.333-4.875,25.18-9.516c7.406-4.38,14.433-9.037,19.215-16.563
			c1.547-2.435,1.564-5.75,3.203-7.327c2.438-2.349,2.922-4.697,3.345-7.67c0.39-2.742,0.922-5.509,1.608-8.242
			c0.816-3.249,1.361-6.646,0.606-10.137c-2.317-10.72-6.432-20.409-14.61-28.109c-2.565-2.416-1.828-4.765,1.07-7.101
			c1.391-1.122,4.673-2.206,3.664-3.668c-1.208-1.752-3.727,0.485-5.449,1.372c-5.289,2.728-5.527,2.773-9.519-1.668
			c-3.524-3.918-7.195-7.776-11.89-10.218C187.642,90.564,184.771,84.925,184.659,77.637z M716.037,147.187
			c-0.967-1.581-0.586-2.641-0.271-3.685c4.145-13.782,8.038-27.635,10.938-41.733c0.861-4.187,0.887-8.514-0.678-12.676
			c-0.854-2.269-1.845-4.575-4.715-4.307c-2.858,0.267-3.944,2.516-4.46,5.104c-0.715,3.583-1.318,7.201-2.285,10.716
			c-4.312,15.654-8.758,31.272-13.116,46.915c-2.298,8.252-3.037,16.8-4.678,25.173c-1.071,5.467,4.505,12.888,10.198,12.969
			c1.309,0.018,2.431-0.604,3.168-1.614c1.364-1.871,2.868-3.67,3.641-5.913c3.053-8.861,7.816-16.868,12.898-24.631
			c4.872-7.442,9.842-14.853,15.537-21.724c0.668-0.807,1.02-2.45,2.232-2.104c1.441,0.41,1.071,2.087,0.943,3.218
			c-0.84,7.436-1.146,14.787,0.682,22.194c1.655,6.705,3.868,12.587,10.63,15.996c6.941,3.499,15.105,0.385,17.066-7.083
			c0.175-0.661,0.175-1.577-0.156-2.122c-1.201-1.98-0.291-3.49,0.823-5.028c2.863-3.963,5.971-7.752,8.318-12.081
			c1.888-3.485,3.432-7.003,2.288-11.09c-0.369-1.319-0.847-2.69-2.315-3.058c-1.462-0.366-2.114,0.899-2.861,1.864
			c-0.972,1.259-1.946,2.517-2.974,3.73c-5.059,5.982-9.687,12.271-13.751,18.979c-0.525,0.869-1.23,2.163-2.476,1.862
			c-1.278-0.31-1.018-1.761-1.277-2.794c-1.251-4.915-1.698-9.845-0.763-14.889c1.1-5.931,0.926-11.952,0.746-17.937
			c-0.129-4.245-1.536-7.915-6.103-9.482c-4.834-1.659-9.923-1.82-13.438,1.869c-4.692,4.923-8.55,10.677-12.498,16.261
			C723.468,135.546,719.939,141.244,716.037,147.187z M358.101,71.917c0.199-3.799-2.511-5.74-4.91-7.728
			c-2.25-1.865-9.376,0.152-10.614,2.792c-0.634,1.351,0.064,2.316,0.876,3.284c2.738,3.263,6.482,4.669,10.465,5.444
			C356.827,76.275,358.33,74.875,358.101,71.917z"/>
		<path fill-rule="evenodd" clip-rule="evenodd" d="M428.062,142.165c-2.633,5.411-6.301,10.167-9.872,14.769
			c-7.255,9.355-15.693,17.546-28.949,17.301c-11.154-0.207-21.345-9.769-22.23-20.839c-0.812-10.159,0.849-19.995,3.619-29.695
			c0.866-3.033,1.131-6.208,2.638-9.1c1.686-3.237,1.789-3.062,5.454-4.044c1.65-0.44,3.078-2.528,3.747-4.589
			c-1.561-0.667-2.73,1.903-3.702,0.535c-0.896-1.263,0.328-2.813,1.211-3.936c3.102-3.949,6.344-7.664,11.17-9.78
			c5.414-2.375,10.529-1.881,15.268,1.177c5.6,3.612,4.497,9.182,2.863,14.237c-2.542,7.853-6.873,14.684-13.401,19.977
			c-2.667,2.162-5.595,3.373-9.046,3.519c-3.387,0.143-6.113,1.138-5.492,5.445c0.067,0.465-0.015,1.013-0.204,1.446
			c-2.281,5.236,0.038,10.445,0.073,15.663c0.004,0.601,0.216,1.204,0.36,1.798c1.832,7.593,5.406,9.416,11.927,5.387
			c8.123-5.019,14.133-12.352,19.757-19.915c7.361-9.899,14.152-20.243,21.892-29.828c3.604-4.464,6.814-9.147,10.204-13.732
			c1.609-2.176,3.581-4.043,5.959-5.388c3.668-2.073,7.292-4.049,11.648-1.463c5.407,3.207,9.564,6.947,9.005,14.059
			c-0.91,11.56-6.828,20.473-14.706,28.299c-2.729,2.711-6.354,4.209-10.357,4.019c-3.38-0.162-4.869,1.16-4.933,4.66
			c-0.1,5.366-0.83,10.702-0.111,16.1c0.463,3.483,1.447,6.725,3.375,9.595c2.081,3.103,5.214,2.284,7.99,1.39
			c4.25-1.371,7.953-3.898,11.177-6.911c12.743-11.909,24.597-24.559,32.263-40.525c0.369-0.77,0.831-1.507,1.34-2.192
			c0.707-0.946,1.41-2.519,2.758-1.853c1.448,0.715,1.503,2.425,1.029,3.914c-0.369,1.153-1.154,2.187-0.974,3.483
			c0.046,0.342,0.224,0.667,0.444,1.289c2.492-1.966,1.947-4.826,2.149-7.076c0.474-5.302,2.235-10.26,3.378-15.372
			c2.287-10.235,4.546-20.495,8.17-30.379c0.769-2.096-0.189-2.593-2.159-2.401c-6.092,0.595-12.068,1.798-17.917,3.538
			c-7.49,2.228-15.23,3.527-22.606,6.181c-2.079,0.749-2.984-0.207-2.708-2.413c0.56-4.486,3.421-6.732,7.99-6.14
			c0.667,0.087,1.288,0.073,1.625-0.501c2.545-4.314,7.496-4.165,11.118-4.304c2.715-0.104,4.416-0.969,6.564-1.912
			c2.527-1.109,5.102-1.539,8.121-1.242c2.519,0.248,5.213-2.095,8.131-2.396c0.593-0.061,1.322-0.618,1.726-0.418
			c4.604,2.294,4.335-1.615,5.006-4.002c0.994-3.529,1.772-7.121,2.554-10.706c1.23-5.644,4.174-10.43,7.586-14.925
			c1.943-2.558,4.502-3.704,7.668-1.71c0.918,0.577,1.999,0.936,3.048,1.244c4.353,1.28,4.792,2.51,2.939,6.529
			c-2.253,4.878-4.382,9.838-5.748,15.055c-1.183,4.513-0.455,5.248,4.138,5.139c2.9-0.068,5.875,0.696,8.539-1.179
			c0.334-0.235,1.17-0.299,1.393-0.071c1.796,1.847,3.392,0.122,5.11,0.043c8.597-0.397,8.965-7.025,10.093-12.8
			c1.369-6.983,3.429-13.727,5.678-20.442c0.473-1.412,1.489-1.863,2.812-1.871c3.674-0.023,7.349,0.001,11.024-0.031
			c2.179-0.019,2.672,1.074,2.391,3.064c-0.992,7.041-3.2,13.784-4.962,20.634c-0.606,2.357-1.349,4.683-2.069,7.009
			c-0.478,1.54,0.11,2.35,1.632,2.585c1.451,0.224,2.901,0.483,4.361,0.625c2.427,0.235,3.66,1.627,4.238,3.9
			c0.59,2.319,0.332,4.276-1.476,6.045c-2.563,2.512-5.844,2.928-9.109,3.383c-1.882,0.264-2.638-1.389-3.794-2.83
			c-0.173,6.699-4.431,11.902-5.466,18.122c-0.079,0.476-0.104,1.178-0.405,1.366c-4.26,2.633-2.313,7.393-3.827,10.942
			c-1.326,3.114-2.77,6.174-3.501,9.509c-2.791,12.75-6.979,25.128-8.438,38.268c-0.88,7.95-0.838,15.822-1.159,23.731
			c-0.046,1.142-0.446,2.433,0.927,3.846c2.675-5.097,5.053-10.129,7.87-14.901c9.133-15.47,17.409-31.545,30.323-44.433
			c2.076-2.07,4.304-3.999,6.553-5.882c2.548-2.135,5.08-4.442,8.804-2.164c4.233,2.587,6.42,6.68,5.615,11.043
			c-0.266,1.437-0.98,2.809-1.123,4.248c-1.338,13.615-2.887,27.235-0.164,40.873c0.37,1.851,0.749,3.871,2.545,4.595
			c1.809,0.729,2.664-1.323,3.799-2.315c1.378-1.209,2.543-2.665,3.935-3.855c5.51-4.707,8.822-10.097,9.791-17.785
			c1.448-11.479,6.455-21.841,13.786-31.08c3.123-3.935,5.914-8.029,10.037-11.031c6.972-5.074,11.538-5.371,18.83-0.851
			c2.089,1.295,3.341,1.432,4.502-1.179c1.401-3.147,2.386-6.412,3.49-9.651c1.546-4.528,5.042-5.901,9.288-3.655
			c7.911,4.187,7.952,4.639,3.359,12.393c-2.391,4.036-2.83,8.773-3.945,13.249c-1.468,5.888-3.553,11.656-4.881,17.487
			c-1.053,4.631-3.993,8.992-2.477,14.545c0.954,3.503-0.069,7.726-1.898,11.661c-1.999,4.3-2.132,9.483-0.281,14.148
			c1.627,4.103,0.251,15.755-2.676,19.033c-1.874,2.1-3.151,1.863-3.908-0.962c-0.424-1.589-0.917-2.393-2.707-2.008
			c-2.298,0.494-3.005-0.912-3.221-2.899c-1.028-9.47-2.286-18.926-0.358-28.443c0.247-1.217,0.855-3.067-0.754-3.569
			c-1.416-0.443-2.186,1.273-2.985,2.312c-0.971,1.257-1.756,2.66-2.761,3.885c-6.179,7.519-15.816,7.087-23.693,4.914
			c-1.765-0.488-2.981-2.093-4.083-3.589c-1.51-2.051-2.745-1.364-3.407,0.552c-2.968,8.615-9.967,14.014-16.106,20.017
			c-2.488,2.432-6.187,2.857-9.213,0.708c-4.839-3.432-7.823-8.148-8.75-14.179c-1.689-11.014,0.283-21.994,0.043-32.989
			c-0.03-1.33-0.005-2.659-0.005-4.4c-3.375,2.015-6.042,3.292-7.34,7.454c-0.865,2.77-3.114,6.183-5.245,8.44
			c-3.138,3.323-4.379,7.239-6.321,10.987c-1.061,2.046-1.947,4.672-5.319,3.99c-1.509-0.306-1.556,0.877-1.679,2.126
			c-0.712,7.156-2.628,13.821-7.149,19.709c-1.474,1.92-2.108,4.596-3.71,6.643c-4.373,5.588-9.732,6.146-14.42,4.689
			c-5.165-1.604-6.952-6.535-7.544-11.632c-0.623-5.362-0.201-10.746-0.096-16.123c0.019-0.953,0.475-2.591-1.15-2.523
			c-1.255,0.053-1.671,1.597-1.376,2.614c0.677,2.343-0.263,3.606-2.169,4.767c-1.37,0.834-2.469,2.066-1.521,3.992
			c0.391,0.796,0.372,1.769-0.321,2.409c-4.586,4.241-5.375,10.493-8.246,15.646c-2.445,4.388-6.186,7.338-10.555,8.335
			c-4.885,1.114-10.266-0.596-13.025-4.965c-2.88-4.558-4.541-9.977-4.269-15.644c0.119-2.464,0.032-4.894-0.516-7.302
			c-1.314-5.785,0.843-11.33,1.207-16.999c0.103-1.575,0.286-3.16,0.613-4.7c0.659-3.084-2.597-2.853-3.846-4.218
			c-0.809-0.885-2.21,1.302-2.56,2.72c-0.337,1.369-1.971,2.329-1.242,4.043c0.109,0.258-0.166,0.978-0.251,0.976
			c-4.443-0.112-2.993,4.686-5.023,6.138c-8.877,6.36-14.456,16.766-25.235,20.696c-8.791,3.204-17.565,4.188-25.816-1.614
			c-4.138-2.911-6.125-7.425-7.27-11.991c-1.246-4.965-1.086-10.277-0.086-15.304C428.196,146.845,428.109,144.586,428.062,142.165z
			 M512.562,169.678c-0.662,3.591-0.254,7.201,0.796,10.778c0.578,1.964,1.29,2.565,2.88,0.767c1.392-1.573,2.604-3.234,3.576-5.094
			c5.219-9.963,10.677-19.811,15.632-29.904c5.377-10.948,11.117-21.83,13.544-33.935c2.957-14.74,6.84-29.213,11.541-43.479
			c0.793-2.407,0.354-3.57-2.633-3.583c-6.159-0.03-12.154,1.018-18.14,2.156c-1.693,0.322-3.735-1.012-4.935,0.429
			c-2.32,2.785-4.842,5.516-6.109,9.019c-2.072,5.736-3.77,11.587-5.106,17.537c-1.917,8.521-5.646,16.595-6.212,25.459
			c-0.109,1.677-0.43,3.534-1.272,4.937c-2.911,4.851-3.052,10.277-3.563,15.608c-0.241,2.514,2.133,5.384-1.266,7.441
			c-0.326,0.198-0.149,1.401-0.046,2.114C512.211,156.441,512.253,163.012,512.562,169.678z M647.709,143.885
			c0,1.1-0.042,2.202,0.013,3.297c0.047,0.944-0.302,2.173,0.675,2.695c1.295,0.689,1.896-0.69,2.672-1.356
			c3.155-2.711,6.099-5.664,8.521-9.031c4.872-6.776,10.91-12.757,13.8-20.915c0.757-2.135,3.586-3.411,3.573-6.144
			c-0.011-2.859-2.382-4.457-3.897-6.416c-2.627-3.399-5.448-3.027-7.324,0.811c-1.571,3.215-3.642,6.005-5.961,8.724
			C652.817,123.708,649.398,133.448,647.709,143.885z M457.703,103.186c-3.577,2.335-10.75,15.734-10.731,19.828
			c0.004,0.501-0.053,1.04,0.483,1.228c0.843,0.293,1.375-0.308,1.825-0.882c2.558-3.267,5.11-6.591,6.625-10.457
			C457.094,109.871,459.109,106.837,457.703,103.186z"/>
		<path fill-rule="evenodd" clip-rule="evenodd" d="M335.707,136.954c-1.963,2.259-4.419,4.069-4.219,7.392
			c0.053,0.872-0.411,2.128-1.075,2.634c-4.107,3.13-6.102,8.145-10.449,11.167c-2.24,1.557-3.877,4.055-6.136,5.908
			c-2.85,2.336-6.233,2.664-9.329,3.985c-0.41,0.176-1.073,0.212-1.427-0.002c-5.09-3.078-10.858-5.512-12.431-12.155
			c-0.788-3.328-1.74-6.639-1.553-10.131c0.042-0.794,0.255-1.94-0.844-2.163c-1-0.201-1.407,0.795-1.783,1.558
			c-4.69,9.501-12.97,15.47-21.412,21.059c-6.153,4.073-16.563-1.794-17.078-9.254c-0.656-9.522,0.849-18.657,4.15-27.688
			c3.348-9.156,5.291-18.813,10.142-27.434c2.436-4.329,6.792-5.509,11.062-2.787c2.509,1.6,3.205,3.601,1.519,6.188
			c-3.68,5.652-4.556,12.263-6.437,18.541c-2.102,7.011-4.185,14.014-5.298,21.265c-0.312,2.033-1.439,4.957,0.145,5.851
			c1.84,1.039,3.375-1.731,4.83-3.083c9.122-8.483,15.148-19.131,20.763-30.044c3.681-7.151,8.859-13.529,10.886-21.55
			c0.497-1.961,2.124-2.958,4.338-1.774c0.629,0.338,1.407,0.392,2.109,0.6c7.032,2.081,7.676,3.896,5.644,10.847
			c-3.376,11.542-6.487,23.196-7.108,35.295c-0.169,3.273,0.243,6.603,0.661,9.872c0.351,2.73,3.689,3.908,5.975,1.703
			c7.175-6.924,15.206-13.184,19.244-22.794c0.657-1.562,1.322-3.479,2.588-4.351c3.265-2.247,3.784-5.405,4.082-8.895
			c0.52-6.083,1.334-12.145,1.732-18.234c0.196-3,1.741-4.899,4.12-6.006c2.309-1.076,4.52-0.454,6.857,1.006
			c4.988,3.116,5.653,7.012,4.517,12.527c-1.374,6.665-1.684,13.572-2.146,20.395c-0.561,8.284-1.491,16.497-2.647,24.723
			c-0.932,6.625-2.07,13.201-3.121,19.799c-1.294,8.125-3.79,15.87-6.158,23.694c-2.371,7.837-5.187,15.482-8.719,22.846
			c-5.878,12.251-12.721,23.861-21.762,34.166c-7.252,8.269-15.266,15.536-24.702,21.103c-9.255,5.461-19.376,8.256-30.157,7.119
			c-3.777-0.396-7.77-0.969-11.233-3.026c-1.379-0.822-3.09-1.534-3.45-3.134c-1.495-6.661-4.314-13.261-1.477-20.255
			c0.502-1.238,0.719-2.833,2.568-2.494c1.655,0.306,1.824,1.806,1.973,3.158c0.396,3.571,1.528,6.648,3.683,9.742
			c3.568,5.13,8.302,5.563,13.577,4.908c15.671-1.945,27.204-11.035,37.042-22.439c14.044-16.279,23.396-35.241,29.058-55.846
			c4.07-14.815,6.808-29.977,7.885-45.374C334.896,142.366,335.366,139.665,335.707,136.954z"/>
		<path fill-rule="evenodd" clip-rule="evenodd" d="M184.659,77.637c0.113,7.288,2.983,12.927,9.837,16.491
			c4.695,2.442,8.366,6.3,11.89,10.218c3.992,4.441,4.23,4.396,9.519,1.668c1.722-0.887,4.242-3.124,5.449-1.372
			c1.009,1.463-2.272,2.547-3.664,3.668c-2.897,2.336-3.635,4.686-1.07,7.101c8.178,7.7,12.293,17.389,14.61,28.109
			c0.755,3.491,0.21,6.888-0.606,10.137c-0.686,2.732-1.218,5.5-1.608,8.242c-0.423,2.973-0.907,5.321-3.345,7.67
			c-1.639,1.577-1.656,4.892-3.203,7.327c-4.782,7.527-11.809,12.183-19.215,16.563c-7.846,4.641-16.706,6.613-25.18,9.516
			c-3.752,1.287-8.04,1.881-12.22,1.456c-6.253-0.639-12.558-0.226-18.628-2.95c-5.62-2.523-10.696-10.471-9.22-16.443
			c2.968-12.009,9.454-22.074,17.267-31.465c3.896-4.683,7.634-9.467,12.016-13.739c3.86-3.763,8.733-6.379,12.365-10.167
			c5.098-5.317,11.777-8.037,17.364-12.435c2.582-2.032,0.891-3.821-0.731-5.09c-3.753-2.934-7.586-5.801-11.608-8.344
			c-5.537-3.5-10.542-7.516-14.488-12.776c-5.015-6.686-5.843-14.059-3.452-21.895c3.401-11.141,9.865-20.465,17.795-28.758
			c5.047-5.278,9.872-10.856,16.21-14.786c3.497-2.167,6.974-3.968,11.259-3.758c3.298,0.162,6.682,0.47,9.9-0.057
			c7.667-1.254,12.784,2.962,17.572,7.738c5.582,5.569,5.308,12.214-0.354,18.024c-3.084,3.168-11.098,3.381-14.32,0.364
			c-2.172-2.032-2.183-4.113,0.289-5.797c2.183-1.488,2.516-3.507,2.193-5.789c-0.474-3.348-3.57-5.197-6.781-4.082
			c-4.463,1.55-8.353,4.239-11.916,7.15C197.788,48.2,190.2,59.425,185.192,72.414c-0.174,0.452-0.313,0.939-0.351,1.419
			C184.748,75.051,184.72,76.275,184.659,77.637z M166.171,190.423c3.531,0.579,7.432-0.497,11.358-1.435
			c12.496-2.982,23.899-7.815,31.607-18.813c10.798-15.405,7.3-32.95-3.583-46.704c-0.585-0.738-1.639-2.033-2.309-1.326
			c-2.208,2.327-5.887,2.249-7.766,4.494c-5.178,6.188-12.33,10.153-17.514,16.365c-4.737,5.678-10.182,10.769-15.371,16.063
			c-6.327,6.454-10.695,13.726-10.27,23.181c0.198,4.41,3.307,7.832,7.768,8.154C161.918,190.532,163.761,190.423,166.171,190.423z"
			/>
		<path fill-rule="evenodd" clip-rule="evenodd" d="M716.037,147.187c3.902-5.943,7.431-11.641,11.295-17.102
			c3.948-5.584,7.806-11.338,12.498-16.261c3.515-3.688,8.604-3.527,13.438-1.869c4.566,1.567,5.974,5.237,6.103,9.482
			c0.18,5.984,0.354,12.005-0.746,17.937c-0.936,5.044-0.488,9.975,0.763,14.889c0.26,1.033-0.001,2.484,1.277,2.794
			c1.245,0.301,1.95-0.993,2.476-1.862c4.064-6.707,8.692-12.996,13.751-18.979c1.027-1.213,2.002-2.472,2.974-3.73
			c0.747-0.964,1.399-2.229,2.861-1.864c1.469,0.368,1.946,1.739,2.315,3.058c1.144,4.087-0.4,7.605-2.288,11.09
			c-2.348,4.329-5.455,8.118-8.318,12.081c-1.114,1.539-2.024,3.048-0.823,5.028c0.331,0.545,0.331,1.461,0.156,2.122
			c-1.961,7.469-10.125,10.582-17.066,7.083c-6.762-3.409-8.975-9.292-10.63-15.996c-1.827-7.407-1.521-14.759-0.682-22.194
			c0.128-1.131,0.498-2.809-0.943-3.218c-1.213-0.346-1.564,1.297-2.232,2.104c-5.695,6.872-10.665,14.282-15.537,21.724
			c-5.082,7.763-9.846,15.77-12.898,24.631c-0.772,2.242-2.276,4.042-3.641,5.913c-0.737,1.009-1.859,1.631-3.168,1.614
			c-5.693-0.081-11.27-7.501-10.198-12.969c1.641-8.373,2.38-16.921,4.678-25.173c4.358-15.643,8.804-31.261,13.116-46.915
			c0.967-3.515,1.57-7.133,2.285-10.716c0.516-2.589,1.602-4.837,4.46-5.104c2.87-0.268,3.86,2.039,4.715,4.307
			c1.564,4.162,1.539,8.489,0.678,12.676c-2.899,14.099-6.793,27.952-10.938,41.733C715.451,144.545,715.07,145.605,716.037,147.187
			z"/>
		<path fill-rule="evenodd" clip-rule="evenodd" d="M358.101,71.917c0.229,2.958-1.273,4.358-4.183,3.793
			c-3.983-0.775-7.727-2.182-10.465-5.444c-0.812-0.968-1.51-1.933-0.876-3.284c1.238-2.64,8.365-4.657,10.614-2.792
			C355.59,66.177,358.299,68.118,358.101,71.917z"/>
		<path fill-rule="evenodd" clip-rule="evenodd" fill="none" d="M512.562,169.678c-0.31-6.666-0.352-13.237-1.313-19.75
			c-0.104-0.712-0.28-1.916,0.046-2.114c3.398-2.058,1.024-4.928,1.266-7.441c0.512-5.331,0.652-10.757,3.563-15.608
			c0.843-1.403,1.163-3.26,1.272-4.937c0.566-8.865,4.295-16.938,6.212-25.459c1.337-5.95,3.034-11.801,5.106-17.537
			c1.268-3.503,3.789-6.233,6.109-9.019c1.199-1.441,3.241-0.107,4.935-0.429c5.985-1.138,11.98-2.186,18.14-2.156
			c2.987,0.014,3.426,1.177,2.633,3.583c-4.701,14.267-8.584,28.739-11.541,43.479c-2.427,12.105-8.167,22.986-13.544,33.935
			c-4.955,10.093-10.413,19.94-15.632,29.904c-0.973,1.86-2.185,3.521-3.576,5.094c-1.59,1.799-2.302,1.197-2.88-0.767
			C512.309,176.878,511.9,173.269,512.562,169.678z"/>
		<path fill-rule="evenodd" clip-rule="evenodd" fill="none" d="M647.709,143.885c1.689-10.437,5.108-20.177,12.071-28.333
			c2.319-2.719,4.39-5.509,5.961-8.724c1.876-3.838,4.697-4.21,7.324-0.811c1.516,1.959,3.887,3.557,3.897,6.416
			c0.013,2.732-2.816,4.008-3.573,6.144c-2.89,8.158-8.928,14.139-13.8,20.915c-2.423,3.367-5.366,6.319-8.521,9.031
			c-0.775,0.667-1.377,2.046-2.672,1.356c-0.977-0.522-0.628-1.751-0.675-2.695C647.667,146.086,647.709,144.984,647.709,143.885z"
			/>
		<path fill-rule="evenodd" clip-rule="evenodd" fill="none" d="M457.703,103.186c1.406,3.651-0.609,6.685-1.798,9.717
			c-1.515,3.865-4.067,7.189-6.625,10.457c-0.451,0.575-0.982,1.176-1.825,0.882c-0.536-0.188-0.479-0.727-0.483-1.228
			C446.953,118.92,454.126,105.521,457.703,103.186z"/>
		<path fill-rule="evenodd" clip-rule="evenodd" fill="none" d="M166.171,190.423c-2.41,0-4.253,0.109-6.08-0.021
			c-4.461-0.322-7.57-3.745-7.768-8.154c-0.425-9.455,3.943-16.727,10.27-23.181c5.189-5.294,10.634-10.385,15.371-16.063
			c5.185-6.212,12.336-10.177,17.514-16.365c1.879-2.245,5.557-2.167,7.766-4.494c0.67-0.707,1.724,0.588,2.309,1.326
			c10.884,13.754,14.382,31.299,3.583,46.704c-7.708,10.998-19.111,15.831-31.607,18.813
			C173.603,189.926,169.702,191.002,166.171,190.423z"/>
	</g>
</g>
<g id="Layer_2">
	<g>
		<g>
			<path fill="none" d="M488.732,560.72c-156.487,0-312.973-0.006-469.459,0.07c-2.708,0.001-3.321-0.61-3.318-3.318
				c0.082-93.169,0.082-186.339,0-279.509c-0.003-2.708,0.61-3.318,3.318-3.318c312.973,0.072,625.947,0.072,938.919,0
				c2.707,0,3.322,0.609,3.319,3.318c-0.081,93.17-0.081,186.34,0,279.509c0.003,2.708-0.609,3.319-3.319,3.318
				C801.707,560.714,645.22,560.72,488.732,560.72z M301.36,422.053c-0.021-3.704,1.15-6.656,2.013-9.562
				c2.836-9.555,5.42-19.171,7.696-28.871c1.511-6.435,3.198-12.879,0.341-19.424c-0.771-1.769-1.722-3.263-3.793-3.372
				c-2.252-0.118-3.609,1.384-4.302,3.252c-0.792,2.13-1.344,4.374-1.753,6.615c-3.228,17.635-9.794,34.358-14.066,51.708
				c-0.578,2.349-2.519,3.378-4.501,3.599c-2.889,0.321-5.62,1.164-8.393,1.844c-2.384,0.584-3.516-0.174-3.561-2.526
				c-0.025-1.312,0.171-2.632,0.326-3.941c0.59-5.002,1.141-9.935,0.613-15.062c-0.481-4.679-0.943-9.433,0.134-14.285
				c1.866-8.41-0.041-12.411-6.212-15.709c-2.473-1.321-4.546-1.232-6.329,1.146c-1.515,2.019-3.305,3.854-4.651,5.976
				c-1.603,2.524-2.806,2.979-4.364,0.021c-2.209-4.196-5.693-6.909-9.958-8.999c-6.102-2.99-7.559-3.093-12.256,1.694
				c-5.795,5.905-11.768,11.697-16.968,18.104c-3.116,3.837-6.253,7.954-8.057,12.699c-2.486,6.541-4.954,13.012-10.978,17.295
				c-0.869,0.618-1.489,1.575-2.321,2.263c-4.438,3.663-7.951,8.418-13.12,11.212c-3.588,1.942-5.411,0.882-5.639-3.183
				c-0.844-15.046,1.975-29.391,8.508-42.948c1.4-2.907,1.979-5.164-0.778-7.644c-3.168-2.848-6.139-3.692-9.478-2.186
				c-4.053,1.826-5.391,5.629-6.872,9.301c-5.126,12.713-6.986,26.162-8.445,39.638c-0.667,6.153,0.374,12.436,6.409,15.797
				c5.901,3.288,12.526,2.963,18.986,1.564c6.428-1.393,11.05-5.426,14.979-10.527c2.829-3.674,5.845-3.788,9.098-0.761
				c3.817,3.553,8.127,4.275,12.914,1.374c6.454-3.914,12.49-8.462,17.774-13.92c5.674-5.857,11.416-11.646,16.526-18.029
				c2.199-2.748,4.713-5.241,7.57-8.385c-0.17,2.782-0.423,4.795-0.395,6.804c0.121,8.554-0.741,17.045-1.494,25.547
				c-0.277,3.115-1.666,5.146-4.963,5.647c-2.81,0.426-6.05,1.827-7.477,3.385c-3.358,3.663-7.953,4.533-11.802,6.862
				c-5.054,3.058-10.682,5.169-15.035,9.369c-1.808,1.746-3.731,3.396-5.359,5.298c-3.038,3.543-9.228,4.604-8.737,10.982
				c0.024,0.328-0.576,0.705-0.894,1.05c-3.808,4.135-7.942,8.021-11.322,12.476c-2.688,3.549-6.677,7.316-2.612,12.567
				c0.457,0.589,0.307,1.942,0,2.78c-1.503,4.112-2.167,8.351-2.284,12.701c-0.022,0.84,0.009,1.921-1.08,1.968
				c-1.289,0.055-1.702-1.289-1.4-2.059c1.38-3.514-0.103-7.514,2.012-10.89c0.657-1.05,0.91-2.578-0.526-3.113
				c-1.691-0.628-1.778,1.083-2.173,2.146c-3.551,9.586-3.852,19.294-1.574,29.244c2.119,9.254,9.259,14.915,17.074,16.059
				c11.681,1.708,22.163-1.815,31.384-9.318c8.492-6.907,14.083-15.865,18.673-25.539c6.157-12.979,12.849-25.657,15.769-40.045
				c2.166-10.672,4.277-21.364,6.422-32.043c0.448-2.235,1.152-3.666,3.587-4.273c2.782-0.694,5.444-1.886,8.141-2.905
				c0.768-0.291,1.5-1.043,2.324-0.432c0.911,0.677,0.774,1.806,0.466,2.672c-1.268,3.566-1.083,7.365-1.909,11
				c-1.586,6.988-1.342,7.524,4.625,11.418c5.965,3.895,7.651,3.47,11.08-2.854c0.395-0.729,0.637-1.549,0.898-2.344
				c2.083-6.339,5.451-12.072,8.71-17.821c2.445-4.312,5.397-8.351,8.282-12.397c3.684-5.173,7.523-10.234,11.304-15.337
				c0.426-0.575,0.892-1.288,1.724-0.985c0.775,0.279,0.869,1.107,0.888,1.832c0.021,0.837-0.024,1.682-0.103,2.517
				c-0.975,10.136-0.812,19.994,4.198,29.4c2.574,4.829,6.668,7.05,11.291,7.946c6.899,1.338,12.717-5.103,11.777-12.206
				c-0.062-0.462-0.137-1.073,0.097-1.398c2.918-4.064,5.892-8.088,8.852-12.122c-0.849,7.141-1.746,13.926,0.952,20.499
				c2.386,5.813,5.813,11.066,12.491,12.406c12.263,2.462,22.82-1.282,31.541-10.035c3.52-3.532,6.113-7.98,10.932-10.175
				c0.968-0.439,2.126-1.791,2.142-2.742c0.046-2.745,0.411-4.742,3.8-4.775c0.747-0.007,0.331-1.408,0.622-1.788
				c1.751-2.292,0.264-7.846,6.111-6.165c1.096,0.314,1.37-1.07,1.844-1.893c0.636-1.101-0.419-2.398,0.477-3.462
				c1.479-0.114,2.131,1.06,2.845,1.931c4.605,5.627,10.753,8.695,17.534,10.734c5.738,1.727,11.502,3.366,17.225,5.142
				c1.56,0.483,4.06,0.741,4.128,2.363c0.086,2.104-2.536,2.557-4.191,3.353c-6.891,3.31-14.394,4.517-21.787,6.026
				c-2.007,0.41-4.205,0.415-6.609-0.681c4.146-1.311,2.596-5.516,4.65-7.873c0.909-1.043-0.003-1.564-1.282-1.599
				c-4.036-0.108-7.377,1.328-10.62,3.716c-6.654,4.896-7.804,13.477-2.389,19.81c0.959,1.123,2.281,1.565,3.551,1.466
				c4.901-0.387,9.861-0.619,14.643-1.64c2.245-0.479,5.476,0.388,6.359-0.735c2.622-3.331,5.561-2.82,8.853-2.295
				c1.111,0.176,2.013-0.666,2.993-1.113c4.475-2.038,8.942-4.095,13.475-6.001c2.902-1.223,4.935-3.123,6.372-5.964
				c1.801-3.561,0.996-7.3,1.369-10.965c0.424-4.147-1.555-6.613-4.896-8.386c-1.482-0.785-3.031-1.458-4.568-2.14
				c-9.691-4.304-19.934-6.983-30.023-10.104c-6.585-2.037-8.345-5.243-4.646-9.507c9.648-11.124,21.675-18.553,35.98-22.067
				c2.586-0.637,5.648-1.83,8.124-0.313c3.829,2.346,4.521-0.135,5.308-2.813c1.831-6.247-2.355-12.838-7.875-12.094
				c-9.527,1.285-19.069,3.182-27.695,7.362c-12.669,6.14-24.052,14.069-29.694,27.945c-1.167,2.872-2.868,5.546-4.476,8.217
				c-5.867,9.748-13.326,18.215-21.388,26.167c-4.881,4.813-9.776,9.662-16.314,12.297c-5.515,2.219-8.627,0.812-10.559-4.853
				c-2.562-7.514-1.576-15.192-0.926-22.845c0.208-2.44,1.813-3.142,4.017-3.131c5.903,0.021,10.271-2.892,13.816-7.335
				c0.825-1.033,1.676-2.045,2.474-3.101c5.101-6.748,8.704-14.044,8.834-22.762c0.104-6.995-4.86-10.093-9.887-12.928
				c-3.728-2.099-7.198,0.023-10.454,1.901c-1.999,1.153-3.598,2.749-5.08,4.538c-4.975,6.003-8.278,12.961-11.284,20.029
				c-1.207,2.839-5.322,4.078-4.809,7.141c0.687,4.098-1.851,5.26-4.007,7.685c-5.405,6.077-10.853,12.242-14.755,19.521
				c-0.728,1.355-1.874,2.493-2.87,3.696c-1.125,1.359-2.174,1.231-2.416-0.538c-0.521-3.794-1.903-7.427-1.633-11.383
				c0.499-7.287,1.991-14.498,1.462-21.874c-0.368-5.131-2.632-8.619-7.194-10.147c-4.652-1.56-10.446-0.105-13.178,3.365
				c-7.068,8.976-14.209,17.901-19.721,27.98C303.922,419.691,303.296,421.04,301.36,422.053z M628.926,396.248
				c-4.044,8.063-6.637,16.323-7.405,25.162c-0.445,5.139,3.561,12.592,8.58,13.593c10.777,2.149,17.827,1.212,24.745-8.958
				c0.599-0.879,1.012-2.242,2.308-1.88c1.321,0.369,0.945,1.796,0.949,2.82c0.033,7.82,0.028,15.641,0.021,23.462
				c-0.002,2.064,0.156,4.097,1.033,5.998c0.447,0.973,0.893,2.292,2.233,1.904c2.164-0.627,2.696,0.553,3.277,2.211
				c0.715,2.028,1.947,2.251,3.475,0.619c3.585-3.825,5.022-15.208,2.324-19.638c-0.932-1.529-0.762-2.99-0.343-4.5
				c1.191-4.29,0.935-8.78,2.959-13.054c2.456-5.179-2.779-11.723,2.214-16.867c0.247-0.258,0.115-0.938,0.073-1.413
				c-0.137-1.595,0.547-3.007,0.853-4.494c0.801-3.904,2.544-7.513,3.387-11.333c1.684-7.611,2.787-15.348,7.291-22.019
				c0.853-1.265,1.146-2.803-0.232-3.932c-2.231-1.827-4.535-3.716-7.336-4.484c-3.123-0.856-5.705,0.037-6.933,3.432
				c-1.264,3.497-2.627,6.959-3.911,10.448c-0.87,2.369-2.329,2.551-4.156,1.131c-6.832-5.309-13.296-3.474-19.327,1.285
				c-4.194,3.309-8.318,6.397-13.29,8.695c-4.38,2.024-8.309,2.343-12.815,1.656c-5.123-0.781-8.31-4.551-12.239-7.188
				c-1.968-1.319-3.923-3.404-6.447-1.571c-2.458,1.785-3.885,4.242-2.823,7.528c0.289,0.896,0.46,1.887,0.424,2.823
				c-0.577,15.185-5.27,29.194-12.262,42.528c-0.542,1.036-1.337,2.028-2.238,2.777c-2.309,1.918-3.697,1.435-4.801-1.366
				c-1.821-4.631-2.138-9.687-2.456-14.407c-0.775-11.609-0.562-23.317-0.112-34.96c0.157-4.119-0.736-6.958-3.999-9.202
				c-0.889-0.613-1.766-1.253-2.595-1.944c-3.204-2.67-4.338-2.536-6.366,0.991c-8.441,14.682-16.777,29.424-25.311,44.054
				c-3.688,6.323-7.171,12.822-12.214,18.249c-0.623,0.671-1.256,1.732-2.347,1.314c-1.119-0.43-0.668-1.654-0.825-2.557
				c-1.167-6.7,0.713-13.098,1.904-19.57c1.481-8.058,4.107-15.768,7.154-23.339c2.964-7.365,6.459-14.481,10.089-21.545
				c1.927-3.747,0.896-5.715-3.079-6.554c-1.537-0.325-2.527-1.143-3.621-2.122c-2.721-2.432-6.024-2.137-7.646,0.913
				c-6.169,11.595-10.836,23.827-14.917,36.284c-2.317,7.078-3.771,14.385-5.155,21.678c-1.149,6.045-1.168,12.245-0.049,18.292
				c0.968,5.225,4.877,8.432,9.246,10.977c7.803,4.547,14.113,4.569,19.195-3.163c0.854-1.299,1.598-2.695,2.217-4.123
				c1.813-4.183,3.58-8.388,5.287-12.613c1.636-4.051,6.689-6.156,6.403-11.341c-0.026-0.45,0.976-0.979,1.528-1.437
				c0.961-0.796,1.812-1.759,1.827-3.003c0.084-5.932,5.099-9.076,7.497-14.364c1.199,3.704,1.146,6.828,1.089,9.92
				c-0.119,6.509,0.115,12.98,1.546,19.357c1.087,4.838,2.421,9.68,5.819,13.41c3.602,3.951,7.955,7.44,13.46,7.638
				c6.099,0.218,13.172-7.411,13.709-13.764c0.127-1.515,0.696-2.784,1.935-3.717c0.771-0.58,1.702-1.156,1.631-2.234
				c-0.23-3.476,1.328-6.547,2.265-9.71c1.963-6.634,4.759-13.04,4.65-20.16c-0.014-0.906,0.532-1.827,0.847-2.733
				c0.458-1.323,1.177-2.071,2.693-1.299C615.827,397.897,622.175,396.751,628.926,396.248z M147.592,372.006
				c2.036,0.24,3.918,0.254,4.653-1.905c2.211-6.482,5.876-12.259,8.744-18.407c3.594-7.705,6.919-15.472,11.738-22.556
				c5.284-7.768,9.299-16.508,18.161-21.265c1.66-0.89,1.712-2.527-0.527-3.435c-5.814-2.353-11.091-1.44-15.7,2.716
				c-4.947,4.46-8.919,9.806-12.392,15.423c-8.61,13.926-15.404,28.785-22.025,43.739c-10.463,23.63-18.936,48.076-29.598,71.621
				c-3.859,8.523-7.05,17.43-13.792,24.298c-4.472,4.556-6.347,4.326-9.772-1.17c-0.879-1.411-1.533-3.005-2.052-4.593
				c-2.9-8.856-4.356-18.101-4.505-27.277c-0.354-21.721-1.24-43.473,2.431-65.11c1.925-11.34,3.397-22.755,5.773-34.028
				c0.839-3.982,1.819-7.971,1.737-12.119c-0.092-4.681-2.234-6.177-6.718-4.37c-1.883,0.757-3.552,2.109-5.673,2.192
				c-3.324,0.129-4.14,2.215-4.316,5.067c-0.267,4.313-0.501,8.644-1.103,12.917c-1.186,8.42-2.442,16.835-3.999,25.19
				c-1.062,5.707-1.125,11.469-1.738,17.193c-1.058,9.889-2.239,19.766-2.45,29.714c-0.208,9.856,0.161,19.69,0.92,29.538
				c0.784,10.182,1.173,20.374,4.84,30.058c2.017,5.324,4.831,10.525,10.636,11.911c8.209,1.959,15.938,0.148,22.46-5.708
				c10.79-9.693,17.126-22.186,21.965-35.474c2.43-6.67,5.751-13.319,4.429-20.878c-0.133-0.763,0.312-1.641,0.542-2.449
				c0.235-0.834,0.807-1.298,1.595-0.737c2.874,2.049,2.938-0.374,3.73-2.127c2.452-5.417,3.516-11.327,6.38-16.643
				c1.625-3.017,4.152-6.541,0.257-10.848c5.767,1.133,5.319-3.341,6.861-5.887C150.207,374.738,148.994,373.472,147.592,372.006z
				 M814.792,423.57c-0.224-0.655-0.405-0.9-0.355-1.085c3.533-13.451,7.785-26.714,10.582-40.352
				c1.122-5.47,3.033-10.905,0.613-16.578c-0.931-2.181-1.644-4.479-4.34-4.693c-2.825-0.225-3.98,1.848-4.546,4.235
				c-1.521,6.417-2.69,12.934-4.527,19.259c-5.571,19.21-11.928,38.219-15.02,58.057c-0.612,3.947-1.924,8.406,0.62,11.943
				c5.558,7.723,11.917,6.815,15.562-1.875c0.047-0.111,0.093-0.225,0.142-0.333c3.223-7.113,6.123-14.329,10.747-20.787
				c5.789-8.083,10.61-16.858,17.225-24.368c0.653-0.74,0.924-2.387,2.254-1.821c1.103,0.469,0.683,1.931,0.688,2.969
				c0.04,6.255-0.5,12.566,0.165,18.75c0.91,8.48,3.651,16.227,12.806,19.556c3.196,1.162,6.562,1.894,9.12-0.739
				c2.823-2.907,7.355-5.281,5.212-10.736c-0.521-1.33,0.36-2.291,1.103-3.238c3.714-4.729,6.992-9.712,9.787-15.06
				c1.649-3.153,1.084-6.082-0.018-8.984c-0.866-2.288-2.667-2.489-4.063-0.422c-4.441,6.57-10.39,12.019-14.069,19.162
				c-1.132,2.202-2.88,5.702-4.826,5.146c-2.166-0.618-2.13-4.372-2.237-7.025c-0.344-8.552,0.517-17.051,1.122-25.558
				c0.338-4.769-1.917-9.403-5.677-11.112c-4.843-2.2-11.414-1.579-14.141,1.738c-3.969,4.822-7.834,9.754-11.411,14.87
				C823.009,410.642,819.056,417.037,814.792,423.57z M770.932,438.244c0.062,0.002,0.126,0.002,0.188,0.004
				c0,4.927-0.253,9.872,0.106,14.774c0.183,2.496,0.247,5.894,4.503,5.51c0.772-0.069,1.039,0.841,1.408,1.473
				c1.702,2.908,3.077,2.999,4.72,0.035c2.506-4.521,3.156-9.529,3.106-14.623c-0.008-0.913-0.363-1.944-0.874-2.709
				c-3.421-5.113-0.747-10.491,0.425-15.133c1.183-4.687,3.024-8.793,0.655-13.456c-0.421-0.828-0.459-1.911,0.136-2.391
				c4.106-3.312,2.431-8.477,4.149-12.598c4.173-10.009,3.776-21.528,10.012-30.926c0.888-1.339,1.408-3.058-0.02-4.314
				c-2.438-2.142-5.136-4.044-8.407-4.604c-2.807-0.481-4.893,0.641-5.866,3.544c-1.065,3.184-2.266,6.32-3.413,9.477
				c-1.119,3.074-2.741,3.814-5.601,1.653c-5.023-3.792-10.144-3.199-15.453-0.196c-5.531,3.134-9.164,7.902-12.812,12.895
				c-7.168,9.806-12.018,20.425-13.373,32.601c-0.367,3.307-0.701,6.368,1.273,9.33c4.527,6.794,13.52,9.434,21.633,6.316
				c4.862-1.867,8.148-5.385,10.766-9.712c0.475-0.788,0.996-1.983,2.084-1.702c1.272,0.328,0.657,1.576,0.657,2.482
				C770.929,430.063,770.932,434.154,770.932,438.244z M707.894,396.457c-0.322-0.049-0.646-0.098-0.969-0.147
				c2.585-4.92,1.051-10.232,2.376-15.302c1.207-4.62,1.09-9.449,2.131-14.146c0.771-3.467-0.835-4.402-6.718-5.581
				c-2.668-0.536-3.759,1.209-4.463,3.182c-0.801,2.246-1.359,4.591-1.887,6.923c-3.362,14.863-4.846,30.023-6.884,45.085
				c-1.127,8.335-1.811,16.718-4.06,24.854c-0.905,3.272,0.099,5.632,2.986,7.301c2.788,1.611,4.922,0.536,7.132-1.373
				c5.511-4.766,7.3-11.514,9.476-17.929c4.772-14.062,10.771-27.484,19.444-39.578c3.188-4.447,6.793-8.511,13.372-7.171
				c2.033,0.413,2.97-1.75,3.801-3.314c0.626-1.175,0.271-2.354-0.74-3.257c-2.941-2.618-11.353-3.109-14.783-0.894
				c-5.26,3.4-10.305,7.052-13.981,12.245C712.003,390.354,709.968,393.42,707.894,396.457z M178.89,372.102
				c1.198,0,2.399,0.049,3.594-0.015c1.54-0.082,2.835-0.746,3.461-2.188c0.639-1.473-0.457-2.536-1.283-3.503
				c-3.511-4.115-8.948-4.176-12.677-0.308c-1.405,1.46-1.099,2.71-0.023,4.121C173.791,372.612,176.394,372.19,178.89,372.102z"/>
			<path fill-rule="evenodd" clip-rule="evenodd" d="M301.36,422.053c1.937-1.013,2.562-2.361,3.226-3.574
				c5.512-10.079,12.653-19.005,19.721-27.98c2.732-3.471,8.526-4.925,13.178-3.365c4.562,1.528,6.826,5.017,7.194,10.147
				c0.529,7.376-0.963,14.587-1.462,21.874c-0.27,3.956,1.112,7.589,1.633,11.383c0.242,1.77,1.291,1.897,2.416,0.538
				c0.996-1.203,2.143-2.341,2.87-3.696c3.903-7.279,9.351-13.444,14.755-19.521c2.156-2.425,4.693-3.587,4.007-7.685
				c-0.513-3.062,3.602-4.302,4.809-7.141c3.005-7.068,6.309-14.026,11.284-20.029c1.482-1.789,3.081-3.385,5.08-4.538
				c3.256-1.878,6.727-4,10.454-1.901c5.027,2.835,9.991,5.933,9.887,12.928c-0.13,8.718-3.733,16.014-8.834,22.762
				c-0.797,1.056-1.649,2.067-2.474,3.101c-3.545,4.443-7.913,7.356-13.816,7.335c-2.204-0.011-3.81,0.69-4.017,3.131
				c-0.65,7.652-1.637,15.331,0.926,22.845c1.932,5.664,5.043,7.071,10.559,4.853c6.538-2.635,11.433-7.483,16.314-12.297
				c8.062-7.952,15.521-16.419,21.388-26.167c1.608-2.671,3.309-5.345,4.476-8.217c5.642-13.876,17.025-21.806,29.694-27.945
				c8.626-4.181,18.167-6.077,27.695-7.362c5.52-0.744,9.706,5.847,7.875,12.094c-0.786,2.679-1.479,5.159-5.308,2.813
				c-2.476-1.517-5.538-0.323-8.124,0.313c-14.305,3.515-26.332,10.943-35.98,22.067c-3.698,4.264-1.938,7.47,4.646,9.507
				c10.089,3.121,20.332,5.801,30.023,10.104c1.537,0.682,3.086,1.354,4.568,2.14c3.342,1.772,5.32,4.238,4.896,8.386
				c-0.373,3.665,0.432,7.404-1.369,10.965c-1.438,2.841-3.47,4.741-6.372,5.964c-4.532,1.906-9,3.963-13.475,6.001
				c-0.98,0.447-1.882,1.289-2.993,1.113c-3.292-0.525-6.23-1.036-8.853,2.295c-0.883,1.123-4.115,0.257-6.359,0.735
				c-4.782,1.021-9.742,1.253-14.643,1.64c-1.27,0.1-2.592-0.343-3.551-1.466c-5.415-6.333-4.265-14.913,2.389-19.81
				c3.242-2.388,6.584-3.824,10.62-3.716c1.279,0.034,2.191,0.556,1.282,1.599c-2.054,2.357-0.505,6.562-4.65,7.873
				c2.405,1.096,4.602,1.091,6.609,0.681c7.393-1.51,14.896-2.717,21.787-6.026c1.655-0.796,4.277-1.248,4.191-3.353
				c-0.068-1.622-2.568-1.88-4.128-2.363c-5.722-1.775-11.487-3.415-17.225-5.142c-6.781-2.039-12.929-5.107-17.534-10.734
				c-0.714-0.871-1.366-2.045-2.845-1.931c-0.896,1.063,0.159,2.361-0.477,3.462c-0.474,0.822-0.748,2.207-1.844,1.893
				c-5.847-1.681-4.36,3.873-6.111,6.165c-0.291,0.38,0.125,1.781-0.622,1.788c-3.39,0.033-3.754,2.03-3.8,4.775
				c-0.016,0.951-1.174,2.303-2.142,2.742c-4.818,2.194-7.412,6.643-10.932,10.175c-8.721,8.753-19.278,12.497-31.541,10.035
				c-6.677-1.34-10.104-6.593-12.491-12.406c-2.698-6.573-1.801-13.358-0.952-20.499c-2.959,4.034-5.933,8.058-8.852,12.122
				c-0.233,0.325-0.158,0.937-0.097,1.398c0.939,7.104-4.878,13.544-11.777,12.206c-4.623-0.896-8.717-3.117-11.291-7.946
				c-5.01-9.406-5.172-19.265-4.198-29.4c0.079-0.835,0.124-1.68,0.103-2.517c-0.02-0.725-0.113-1.553-0.888-1.832
				c-0.832-0.303-1.298,0.41-1.724,0.985c-3.781,5.103-7.621,10.164-11.304,15.337c-2.884,4.047-5.836,8.085-8.282,12.397
				c-3.259,5.749-6.626,11.482-8.71,17.821c-0.261,0.795-0.503,1.614-0.898,2.344c-3.429,6.323-5.115,6.748-11.08,2.854
				c-5.966-3.894-6.21-4.43-4.625-11.418c0.825-3.635,0.641-7.434,1.909-11c0.308-0.866,0.444-1.995-0.466-2.672
				c-0.824-0.611-1.557,0.141-2.324,0.432c-2.697,1.02-5.359,2.211-8.141,2.905c-2.435,0.607-3.139,2.038-3.587,4.273
				c-2.145,10.679-4.257,21.371-6.422,32.043c-2.92,14.388-9.612,27.065-15.769,40.045c-4.591,9.674-10.181,18.632-18.673,25.539
				c-9.222,7.503-19.704,11.026-31.384,9.318c-7.815-1.144-14.955-6.805-17.074-16.059c-2.278-9.95-1.978-19.658,1.574-29.244
				c0.396-1.063,0.482-2.774,2.173-2.146c1.436,0.535,1.183,2.063,0.526,3.113c-2.115,3.376-0.632,7.376-2.012,10.89
				c-0.302,0.77,0.111,2.113,1.4,2.059c1.089-0.047,1.058-1.128,1.08-1.968c0.117-4.351,0.78-8.589,2.284-12.701
				c0.307-0.838,0.457-2.191,0-2.78c-4.065-5.251-0.075-9.019,2.612-12.567c3.379-4.455,7.514-8.341,11.322-12.476
				c0.317-0.345,0.918-0.722,0.894-1.05c-0.491-6.378,5.699-7.439,8.737-10.982c1.628-1.901,3.551-3.552,5.359-5.298
				c4.353-4.2,9.981-6.312,15.035-9.369c3.849-2.329,8.444-3.199,11.802-6.862c1.427-1.558,4.667-2.959,7.477-3.385
				c3.297-0.502,4.687-2.532,4.963-5.647c0.752-8.502,1.615-16.993,1.494-25.547c-0.028-2.009,0.225-4.021,0.395-6.804
				c-2.856,3.144-5.371,5.637-7.57,8.385c-5.11,6.383-10.852,12.172-16.526,18.029c-5.284,5.458-11.32,10.006-17.774,13.92
				c-4.786,2.901-9.097,2.179-12.914-1.374c-3.252-3.027-6.269-2.913-9.098,0.761c-3.929,5.102-8.551,9.135-14.979,10.527
				c-6.46,1.398-13.085,1.724-18.986-1.564c-6.035-3.361-7.076-9.644-6.409-15.797c1.459-13.476,3.319-26.925,8.445-39.638
				c1.481-3.672,2.819-7.475,6.872-9.301c3.339-1.507,6.31-0.662,9.478,2.186c2.756,2.479,2.178,4.736,0.778,7.644
				c-6.533,13.558-9.352,27.902-8.508,42.948c0.228,4.064,2.05,5.125,5.639,3.183c5.169-2.794,8.683-7.549,13.12-11.212
				c0.832-0.688,1.452-1.645,2.321-2.263c6.024-4.283,8.492-10.754,10.978-17.295c1.804-4.745,4.941-8.862,8.057-12.699
				c5.201-6.406,11.173-12.198,16.968-18.104c4.697-4.787,6.154-4.685,12.256-1.694c4.266,2.09,7.749,4.803,9.958,8.999
				c1.558,2.957,2.761,2.503,4.364-0.021c1.346-2.121,3.136-3.957,4.651-5.976c1.783-2.378,3.856-2.467,6.329-1.146
				c6.171,3.298,8.078,7.299,6.212,15.709c-1.078,4.853-0.615,9.606-0.134,14.285c0.527,5.128-0.023,10.061-0.613,15.062
				c-0.155,1.31-0.352,2.63-0.326,3.941c0.044,2.353,1.177,3.11,3.561,2.526c2.773-0.68,5.504-1.522,8.393-1.844
				c1.983-0.221,3.923-1.25,4.501-3.599c4.271-17.35,10.838-34.073,14.066-51.708c0.41-2.241,0.961-4.485,1.753-6.615
				c0.693-1.868,2.05-3.37,4.302-3.252c2.071,0.109,3.021,1.604,3.793,3.372c2.857,6.545,1.17,12.989-0.341,19.424
				c-2.275,9.7-4.859,19.316-7.696,28.871C302.51,415.396,301.338,418.349,301.36,422.053z M193.963,519.496
				c-1.126,3.88,1.196,6.634,1.832,9.768c1.345,6.643,5.854,8.957,12.251,6.983c9.667-2.985,14.876-11.439,22.157-17.338
				c2.179-1.765,1.705-4.658,2.717-6.93c0.293-0.655,0.62-1.304,1.003-1.912c4.12-6.537,6.451-13.911,9.702-20.854
				c4.042-8.625,5.987-17.982,8.14-27.198c1.113-4.769,2.16-9.573,3.156-14.377c0.187-0.9,0.478-2.05-0.276-2.768
				c-0.947-0.898-1.765,0.167-2.55,0.571c-11.519,5.92-22.462,12.522-31.845,21.756c-6.012,5.916-11.663,11.786-16.245,18.999
				C197.376,496.631,192.524,507.255,193.963,519.496z M215.055,426.217c0.927,0.429,1.446,0.067,1.868-0.342
				c4.365-4.247,8.679-8.547,13.069-12.766c4.571-4.392,6.635-10.911,12.354-14.359c1.224-0.74,2.109-2.577,0.851-3.758
				c-2.374-2.225-2.5-5.009-2.941-7.854c-0.188-1.212-0.42-2.881-1.848-3.271c-1.594-0.438-2.577,0.864-3.514,2.012
				c-4.99,6.11-9.378,12.661-13.462,19.373C217.539,411.647,215.763,418.844,215.055,426.217z M397,381.299
				c-0.081-1.021,0.004-1.826-0.704-2.246c-0.493-0.294-0.865,0.151-1.168,0.518c-4.584,5.522-7.402,11.925-9.334,18.766
				c-0.164,0.58-0.181,1.308,0.588,1.448c0.374,0.067,0.953-0.2,1.229-0.505C392.373,394.027,395.338,387.847,397,381.299z"/>
			<path fill-rule="evenodd" clip-rule="evenodd" d="M628.926,396.248c-6.751,0.503-13.099,1.649-19.114-1.406
				c-1.517-0.772-2.235-0.024-2.693,1.299c-0.314,0.906-0.86,1.827-0.847,2.733c0.108,7.12-2.688,13.526-4.65,20.16
				c-0.937,3.163-2.495,6.234-2.265,9.71c0.071,1.078-0.86,1.654-1.631,2.234c-1.238,0.933-1.808,2.202-1.935,3.717
				c-0.537,6.353-7.61,13.981-13.709,13.764c-5.505-0.197-9.858-3.687-13.46-7.638c-3.398-3.73-4.732-8.572-5.819-13.41
				c-1.431-6.377-1.665-12.849-1.546-19.357c0.057-3.092,0.11-6.216-1.089-9.92c-2.398,5.288-7.413,8.433-7.497,14.364
				c-0.016,1.244-0.866,2.207-1.827,3.003c-0.553,0.458-1.555,0.986-1.528,1.437c0.286,5.185-4.768,7.29-6.403,11.341
				c-1.707,4.226-3.474,8.431-5.287,12.613c-0.619,1.428-1.362,2.824-2.217,4.123c-5.082,7.732-11.393,7.71-19.195,3.163
				c-4.369-2.545-8.278-5.752-9.246-10.977c-1.119-6.047-1.101-12.247,0.049-18.292c1.385-7.293,2.838-14.6,5.155-21.678
				c4.081-12.457,8.748-24.689,14.917-36.284c1.622-3.05,4.926-3.345,7.646-0.913c1.094,0.979,2.084,1.797,3.621,2.122
				c3.975,0.839,5.006,2.807,3.079,6.554c-3.63,7.063-7.125,14.18-10.089,21.545c-3.047,7.571-5.673,15.281-7.154,23.339
				c-1.191,6.473-3.071,12.87-1.904,19.57c0.157,0.902-0.294,2.127,0.825,2.557c1.091,0.418,1.724-0.644,2.347-1.314
				c5.043-5.427,8.525-11.926,12.214-18.249c8.533-14.63,16.869-29.372,25.311-44.054c2.028-3.527,3.162-3.661,6.366-0.991
				c0.829,0.691,1.706,1.331,2.595,1.944c3.263,2.244,4.156,5.083,3.999,9.202c-0.45,11.643-0.663,23.351,0.112,34.96
				c0.318,4.721,0.635,9.776,2.456,14.407c1.104,2.801,2.492,3.284,4.801,1.366c0.901-0.749,1.696-1.741,2.238-2.777
				c6.992-13.334,11.685-27.344,12.262-42.528c0.036-0.937-0.135-1.927-0.424-2.823c-1.062-3.286,0.365-5.743,2.823-7.528
				c2.524-1.833,4.479,0.252,6.447,1.571c3.93,2.637,7.116,6.406,12.239,7.188c4.507,0.687,8.436,0.368,12.815-1.656
				c4.972-2.298,9.096-5.387,13.29-8.695c6.031-4.759,12.495-6.594,19.327-1.285c1.827,1.42,3.286,1.238,4.156-1.131
				c1.284-3.489,2.647-6.951,3.911-10.448c1.228-3.395,3.81-4.288,6.933-3.432c2.801,0.769,5.104,2.657,7.336,4.484
				c1.379,1.129,1.085,2.667,0.232,3.932c-4.504,6.671-5.607,14.407-7.291,22.019c-0.843,3.82-2.586,7.429-3.387,11.333
				c-0.306,1.487-0.989,2.899-0.853,4.494c0.042,0.476,0.174,1.155-0.073,1.413c-4.993,5.145,0.242,11.688-2.214,16.867
				c-2.024,4.273-1.768,8.764-2.959,13.054c-0.419,1.51-0.589,2.971,0.343,4.5c2.698,4.43,1.261,15.812-2.324,19.638
				c-1.527,1.632-2.76,1.409-3.475-0.619c-0.581-1.658-1.113-2.838-3.277-2.211c-1.341,0.388-1.786-0.932-2.233-1.904
				c-0.877-1.901-1.035-3.934-1.033-5.998c0.008-7.821,0.013-15.642-0.021-23.462c-0.004-1.024,0.372-2.451-0.949-2.82
				c-1.296-0.362-1.709,1.001-2.308,1.88c-6.918,10.17-13.968,11.107-24.745,8.958c-5.02-1.001-9.025-8.454-8.58-13.593
				C622.289,412.571,624.882,404.312,628.926,396.248z M635.053,418.21c0.158,1.044,0.286,2.241,0.534,3.416
				c0.24,1.128-0.033,2.72,1.328,3.107c1.334,0.379,1.968-1.086,2.83-1.877c5.347-4.914,9.576-10.753,13.978-16.477
				c3.166-4.12,5.268-8.823,8.003-13.142c3.063-4.83,2.176-10.714-3.047-13.28c-2.125-1.045-3.646-0.162-4.814,1.76
				c-1.628,2.666-3.185,5.4-5.072,7.875c-4.004,5.247-8.285,10.346-9.938,16.901C637.859,410.447,635.125,413.809,635.053,418.21z"
				/>
			<path fill-rule="evenodd" clip-rule="evenodd" d="M147.592,372.006c1.402,1.466,2.615,2.732,1.491,4.593
				c-1.542,2.546-1.094,7.02-6.861,5.887c3.896,4.307,1.368,7.831-0.257,10.848c-2.864,5.315-3.929,11.226-6.38,16.643
				c-0.792,1.753-0.857,4.176-3.73,2.127c-0.788-0.561-1.359-0.097-1.595,0.737c-0.229,0.809-0.674,1.687-0.542,2.449
				c1.322,7.559-1.999,14.208-4.429,20.878c-4.839,13.288-11.176,25.78-21.965,35.474c-6.523,5.856-14.251,7.667-22.46,5.708
				c-5.805-1.386-8.619-6.587-10.636-11.911c-3.667-9.684-4.056-19.876-4.84-30.058c-0.759-9.848-1.128-19.682-0.92-29.538
				c0.21-9.948,1.392-19.825,2.45-29.714c0.613-5.725,0.675-11.486,1.738-17.193c1.557-8.355,2.813-16.771,3.999-25.19
				c0.602-4.273,0.836-8.604,1.103-12.917c0.177-2.853,0.993-4.938,4.316-5.067c2.122-0.083,3.791-1.436,5.673-2.192
				c4.484-1.807,6.625-0.311,6.718,4.37c0.082,4.148-0.898,8.137-1.737,12.119c-2.375,11.273-3.848,22.688-5.773,34.028
				c-3.671,21.638-2.785,43.39-2.431,65.11c0.149,9.177,1.604,18.421,4.505,27.277c0.519,1.588,1.173,3.182,2.052,4.593
				c3.425,5.496,5.3,5.726,9.772,1.17c6.742-6.868,9.933-15.774,13.792-24.298c10.663-23.545,19.135-47.991,29.598-71.621
				c6.621-14.954,13.415-29.813,22.025-43.739c3.473-5.617,7.445-10.963,12.392-15.423c4.609-4.156,9.886-5.068,15.7-2.716
				c2.239,0.907,2.187,2.545,0.527,3.435c-8.862,4.757-12.877,13.497-18.161,21.265c-4.819,7.084-8.144,14.851-11.738,22.556
				c-2.867,6.148-6.532,11.925-8.744,18.407C151.51,372.26,149.628,372.246,147.592,372.006z"/>
			<path fill-rule="evenodd" clip-rule="evenodd" d="M814.792,423.57c4.264-6.533,8.217-12.929,12.517-19.082
				c3.577-5.116,7.442-10.048,11.411-14.87c2.727-3.317,9.298-3.938,14.141-1.738c3.76,1.709,6.015,6.344,5.677,11.112
				c-0.605,8.507-1.466,17.006-1.122,25.558c0.107,2.653,0.071,6.407,2.237,7.025c1.946,0.556,3.694-2.944,4.826-5.146
				c3.68-7.144,9.628-12.592,14.069-19.162c1.396-2.067,3.197-1.866,4.063,0.422c1.102,2.902,1.667,5.831,0.018,8.984
				c-2.795,5.348-6.073,10.331-9.787,15.06c-0.742,0.947-1.624,1.908-1.103,3.238c2.144,5.455-2.389,7.829-5.212,10.736
				c-2.558,2.633-5.924,1.901-9.12,0.739c-9.154-3.329-11.896-11.075-12.806-19.556c-0.665-6.184-0.125-12.495-0.165-18.75
				c-0.006-1.038,0.414-2.5-0.688-2.969c-1.33-0.565-1.601,1.081-2.254,1.821c-6.614,7.51-11.436,16.285-17.225,24.368
				c-4.624,6.458-7.524,13.674-10.747,20.787c-0.049,0.108-0.095,0.222-0.142,0.333c-3.645,8.69-10.004,9.598-15.562,1.875
				c-2.544-3.537-1.232-7.996-0.62-11.943c3.092-19.838,9.448-38.847,15.02-58.057c1.837-6.325,3.006-12.842,4.527-19.259
				c0.565-2.388,1.721-4.46,4.546-4.235c2.696,0.215,3.409,2.513,4.34,4.693c2.42,5.673,0.509,11.108-0.613,16.578
				c-2.797,13.638-7.049,26.9-10.582,40.352C814.387,422.67,814.568,422.915,814.792,423.57z"/>
			<path fill-rule="evenodd" clip-rule="evenodd" d="M770.932,438.244c0-4.09-0.003-8.181,0.002-12.271
				c0-0.906,0.615-2.154-0.657-2.482c-1.088-0.281-1.609,0.914-2.084,1.702c-2.617,4.327-5.903,7.845-10.766,9.712
				c-8.113,3.117-17.105,0.478-21.633-6.316c-1.975-2.962-1.641-6.023-1.273-9.33c1.355-12.176,6.205-22.795,13.373-32.601
				c3.648-4.992,7.281-9.761,12.812-12.895c5.31-3.003,10.43-3.596,15.453,0.196c2.859,2.161,4.481,1.421,5.601-1.653
				c1.147-3.156,2.348-6.293,3.413-9.477c0.974-2.903,3.06-4.025,5.866-3.544c3.271,0.561,5.97,2.463,8.407,4.604
				c1.428,1.257,0.907,2.976,0.02,4.314c-6.235,9.397-5.839,20.917-10.012,30.926c-1.719,4.121-0.043,9.286-4.149,12.598
				c-0.595,0.479-0.557,1.562-0.136,2.391c2.369,4.663,0.527,8.77-0.655,13.456c-1.172,4.642-3.846,10.02-0.425,15.133
				c0.511,0.765,0.866,1.796,0.874,2.709c0.05,5.094-0.601,10.102-3.106,14.623c-1.643,2.964-3.018,2.873-4.72-0.035
				c-0.369-0.632-0.636-1.542-1.408-1.473c-4.256,0.384-4.32-3.014-4.503-5.51c-0.359-4.902-0.106-9.848-0.106-14.774
				C771.058,438.246,770.994,438.246,770.932,438.244z M747.961,417.184c0.211,2.099,0.363,3.897,0.581,5.687
				c0.1,0.826,0.207,1.774,1.142,2.087c0.999,0.333,1.468-0.556,2.058-1.134c7.141-7.02,12.92-15.132,18.932-23.086
				c1.937-2.562,2.052-5.784,4.146-8.106c3.343-3.706,0.663-11.943-4.23-12.987c-1.945-0.415-3.164,0.562-4.09,2.197
				c-1.359,2.4-2.53,4.992-4.298,7.06c-4.56,5.333-8.575,10.986-10.686,17.703C750.369,410.243,748.196,413.556,747.961,417.184z"/>
			<path fill-rule="evenodd" clip-rule="evenodd" d="M707.894,396.457c2.074-3.037,4.109-6.104,6.233-9.103
				c3.677-5.193,8.722-8.845,13.981-12.245c3.431-2.216,11.842-1.725,14.783,0.894c1.012,0.903,1.366,2.082,0.74,3.257
				c-0.831,1.564-1.768,3.728-3.801,3.314c-6.579-1.34-10.185,2.724-13.372,7.171c-8.674,12.094-14.672,25.517-19.444,39.578
				c-2.176,6.415-3.965,13.163-9.476,17.929c-2.21,1.909-4.344,2.984-7.132,1.373c-2.888-1.669-3.892-4.028-2.986-7.301
				c2.249-8.137,2.933-16.52,4.06-24.854c2.038-15.062,3.521-30.222,6.884-45.085c0.527-2.332,1.086-4.677,1.887-6.923
				c0.704-1.973,1.795-3.718,4.463-3.182c5.883,1.179,7.488,2.114,6.718,5.581c-1.041,4.697-0.924,9.526-2.131,14.146
				c-1.325,5.069,0.209,10.382-2.376,15.302C707.247,396.359,707.571,396.408,707.894,396.457z"/>
			<path fill-rule="evenodd" clip-rule="evenodd" d="M178.89,372.102c-2.496,0.089-5.099,0.511-6.929-1.893
				c-1.075-1.411-1.382-2.661,0.023-4.121c3.729-3.868,9.167-3.808,12.677,0.308c0.826,0.967,1.922,2.03,1.283,3.503
				c-0.625,1.442-1.921,2.106-3.461,2.188C181.289,372.15,180.087,372.102,178.89,372.102z"/>
			<path fill-rule="evenodd" clip-rule="evenodd" fill="none" d="M193.963,519.496c-1.439-12.241,3.413-22.865,10.042-33.299
				c4.582-7.213,10.232-13.083,16.245-18.999c9.383-9.233,20.326-15.836,31.845-21.756c0.785-0.404,1.604-1.47,2.55-0.571
				c0.753,0.718,0.463,1.867,0.276,2.768c-0.996,4.804-2.042,9.608-3.156,14.377c-2.153,9.216-4.098,18.573-8.14,27.198
				c-3.251,6.942-5.582,14.316-9.702,20.854c-0.383,0.608-0.71,1.257-1.003,1.912c-1.013,2.271-0.539,5.165-2.717,6.93
				c-7.281,5.898-12.491,14.353-22.157,17.338c-6.397,1.974-10.906-0.341-12.251-6.983
				C195.16,526.13,192.837,523.376,193.963,519.496z"/>
			<path fill-rule="evenodd" clip-rule="evenodd" fill="none" d="M215.055,426.217c0.708-7.373,2.484-14.569,6.376-20.966
				c4.084-6.712,8.472-13.263,13.462-19.373c0.937-1.147,1.92-2.449,3.514-2.012c1.428,0.391,1.661,2.06,1.848,3.271
				c0.441,2.846,0.568,5.63,2.941,7.854c1.258,1.181,0.373,3.018-0.851,3.758c-5.719,3.448-7.784,9.968-12.354,14.359
				c-4.391,4.219-8.705,8.519-13.069,12.766C216.501,426.284,215.982,426.646,215.055,426.217z"/>
			<path fill-rule="evenodd" clip-rule="evenodd" fill="none" d="M397,381.299c-1.661,6.548-4.626,12.729-9.389,17.98
				c-0.277,0.305-0.856,0.572-1.229,0.505c-0.769-0.141-0.751-0.868-0.588-1.448c1.932-6.841,4.75-13.243,9.334-18.766
				c0.303-0.366,0.675-0.812,1.168-0.518C397.003,379.473,396.919,380.278,397,381.299z"/>
			<path fill-rule="evenodd" clip-rule="evenodd" fill="none" d="M635.053,418.21c0.072-4.401,2.807-7.763,3.802-11.716
				c1.652-6.556,5.934-11.654,9.938-16.901c1.888-2.475,3.444-5.209,5.072-7.875c1.168-1.922,2.689-2.805,4.814-1.76
				c5.223,2.566,6.11,8.45,3.047,13.28c-2.735,4.318-4.837,9.021-8.003,13.142c-4.401,5.724-8.631,11.562-13.978,16.477
				c-0.862,0.791-1.496,2.256-2.83,1.877c-1.361-0.388-1.088-1.979-1.328-3.107C635.339,420.451,635.211,419.254,635.053,418.21z"/>
			<path fill-rule="evenodd" clip-rule="evenodd" fill="none" d="M747.961,417.184c0.235-3.628,2.408-6.94,3.555-10.58
				c2.11-6.717,6.126-12.37,10.686-17.703c1.768-2.067,2.938-4.659,4.298-7.06c0.926-1.636,2.145-2.612,4.09-2.197
				c4.894,1.044,7.573,9.281,4.23,12.987c-2.095,2.322-2.21,5.545-4.146,8.106c-6.012,7.954-11.791,16.066-18.932,23.086
				c-0.59,0.578-1.059,1.467-2.058,1.134c-0.935-0.312-1.042-1.261-1.142-2.087C748.324,421.081,748.172,419.282,747.961,417.184z"
				/>
		</g>
	</g>
</g>
</svg>
