<?xml version="1.0" encoding="utf-8"?>
<!-- Generator: Adobe Illustrator 16.0.0, SVG Export Plug-In . SVG Version: 6.00 Build 0)  -->
<!DOCTYPE svg PUBLIC "-//W3C//DTD SVG 1.1//EN" "http://www.w3.org/Graphics/SVG/1.1/DTD/svg11.dtd">
<svg version="1.1" xmlns="http://www.w3.org/2000/svg" xmlns:xlink="http://www.w3.org/1999/xlink" x="0px" y="0px" width="640px"
	 height="480px" viewBox="0 0 640 480" enable-background="new 0 0 640 480" xml:space="preserve">
<g id="Layer_1">
	<g id="Layer_1_1_">
		<g>
			<path fill="none" d="M320.003,299.33c-97.712,0-195.423-0.008-293.133,0.048c-1.982,0.002-2.43-0.445-2.43-2.429
				c0.06-83.876,0.06-167.753,0-251.632c0-1.981,0.447-2.428,2.43-2.428c195.421,0.053,390.841,0.053,586.261,0
				c1.983,0,2.43,0.447,2.429,2.428c-0.056,83.878-0.056,167.756,0,251.632c0.001,1.983-0.445,2.431-2.429,2.429
				C515.423,299.322,417.711,299.33,320.003,299.33z M267.724,145.153c0.034,1.742,0.096,3.367-0.254,5.112
				c-0.719,3.616-0.833,7.437,0.063,11.008c0.823,3.285,2.252,6.531,5.229,8.625c5.936,4.174,12.247,3.465,18.569,1.161
				c7.756-2.827,11.769-10.312,18.152-14.887c1.461-1.045,0.418-4.496,3.614-4.416c0.062,0.002,0.259-0.516,0.18-0.701
				c-0.523-1.233,0.651-1.924,0.896-2.909c0.25-1.019,1.258-2.593,1.841-1.957c0.897,0.983,3.24,0.816,2.768,3.035
				c-0.237,1.107-0.369,2.248-0.442,3.38c-0.261,4.077-1.813,8.066-0.869,12.228c0.396,1.733,0.458,3.48,0.371,5.253
				c-0.195,4.076,0.999,7.975,3.072,11.252c1.984,3.144,5.855,4.374,9.369,3.572c3.143-0.717,5.831-2.839,7.592-5.995
				c2.064-3.708,2.633-8.205,5.931-11.255c0.499-0.46,0.511-1.16,0.231-1.732c-0.68-1.386,0.106-2.272,1.095-2.873
				c1.37-0.834,2.046-1.744,1.559-3.428c-0.213-0.731,0.088-1.842,0.99-1.881c1.168-0.049,0.84,1.13,0.827,1.815
				c-0.076,3.868-0.38,7.741,0.068,11.598c0.426,3.667,1.713,7.212,5.427,8.368c3.373,1.046,7.229,0.645,10.374-3.374
				c1.153-1.473,1.609-3.397,2.667-4.778c3.254-4.235,4.633-9.03,5.145-14.177c0.087-0.899,0.121-1.75,1.208-1.53
				c2.425,0.49,3.062-1.399,3.824-2.87c1.397-2.698,2.29-5.513,4.547-7.903c1.533-1.625,3.152-4.08,3.772-6.072
				c0.936-2.993,2.854-3.912,5.28-5.362c0,1.252-0.018,2.209,0.006,3.165c0.17,7.909-1.247,15.807-0.031,23.729
				c0.664,4.338,2.812,7.73,6.292,10.2c2.178,1.546,4.838,1.24,6.627-0.509c4.417-4.318,9.454-8.201,11.587-14.398
				c0.477-1.379,1.364-1.873,2.45-0.397c0.793,1.076,1.666,2.231,2.938,2.582c5.665,1.563,12.599,1.873,17.043-3.535
				c0.723-0.881,1.288-1.89,1.984-2.793c0.578-0.748,1.131-1.982,2.147-1.665c1.158,0.362,0.721,1.693,0.543,2.568
				c-1.385,6.846-0.479,13.648,0.258,20.459c0.157,1.431,0.664,2.442,2.317,2.086c1.289-0.275,1.642,0.301,1.946,1.445
				c0.547,2.032,1.463,2.203,2.812,0.692c2.106-2.358,3.094-10.74,1.926-13.691c-1.332-3.355-1.236-7.083,0.201-10.177
				c1.316-2.832,2.054-5.869,1.366-8.388c-1.091-3.995,1.025-7.132,1.78-10.463c0.957-4.195,2.458-8.344,3.512-12.579
				c0.802-3.22,1.119-6.627,2.839-9.531c3.303-5.577,3.272-5.902-2.418-8.914c-3.053-1.617-5.568-0.628-6.679,2.629
				c-0.795,2.33-1.504,4.678-2.513,6.942c-0.835,1.878-1.735,1.78-3.237,0.848c-5.245-3.252-8.53-3.038-13.546,0.612
				c-2.965,2.16-4.974,5.105-7.219,7.936c-5.274,6.645-8.875,14.099-9.917,22.356c-0.698,5.531-3.081,9.407-7.043,12.793
				c-1.002,0.855-1.839,1.903-2.83,2.773c-0.817,0.713-1.432,2.19-2.733,1.666c-1.293-0.521-1.564-1.976-1.831-3.306
				c-1.957-9.811-0.843-19.607,0.117-29.401c0.104-1.035,0.617-2.021,0.81-3.056c0.578-3.139-0.994-6.083-4.039-7.943
				c-2.681-1.638-4.501,0.021-6.334,1.557c-1.617,1.354-3.22,2.742-4.713,4.231c-9.29,9.27-15.243,20.833-21.812,31.961
				c-2.025,3.433-3.736,7.053-5.661,10.719c-0.987-1.018-0.699-1.946-0.667-2.766c0.23-5.69,0.2-11.353,0.834-17.071
				c1.049-9.452,4.062-18.355,6.068-27.527c0.527-2.399,1.566-4.601,2.52-6.84c1.09-2.554-0.312-5.978,2.754-7.872
				c0.217-0.135,0.233-0.64,0.29-0.982c0.745-4.474,3.808-8.217,3.932-13.036c0.832,1.036,1.376,2.225,2.73,2.036
				c2.35-0.328,4.707-0.628,6.552-2.434c1.301-1.273,1.485-2.681,1.061-4.349c-0.415-1.635-1.301-2.636-3.048-2.806
				c-1.05-0.101-2.092-0.287-3.136-0.449c-1.094-0.169-1.518-0.751-1.174-1.859c0.517-1.674,1.051-3.347,1.486-5.042
				c1.269-4.927,2.857-9.778,3.57-14.843c0.202-1.432-0.153-2.218-1.721-2.204c-2.643,0.023-5.289,0.005-7.931,0.023
				c-0.949,0.005-1.681,0.33-2.021,1.345c-1.618,4.831-3.1,9.681-4.084,14.705c-0.811,4.153-1.077,8.921-7.261,9.207
				c-1.237,0.057-2.384,1.297-3.675-0.031c-0.16-0.163-0.762-0.117-1.003,0.051c-1.915,1.349-4.056,0.799-6.142,0.849
				c-3.306,0.077-3.828-0.451-2.977-3.697c0.982-3.752,2.515-7.32,4.135-10.83c1.333-2.891,1.017-3.775-2.114-4.695
				c-0.756-0.223-1.532-0.48-2.193-0.896c-2.275-1.435-4.115-0.61-5.516,1.23c-2.454,3.233-4.57,6.677-5.456,10.735
				c-0.562,2.579-1.121,5.164-1.837,7.701c-0.482,1.717-0.289,4.53-3.601,2.88c-0.291-0.145-0.813,0.256-1.243,0.3
				c-2.098,0.217-4.034,1.903-5.847,1.724c-2.174-0.213-4.024,0.096-5.843,0.893c-1.544,0.679-2.77,1.301-4.722,1.375
				c-2.605,0.1-6.166-0.007-7.996,3.096c-0.245,0.414-0.69,0.424-1.17,0.361c-3.287-0.426-5.345,1.188-5.748,4.416
				c-0.198,1.587,0.452,2.275,1.947,1.736c5.306-1.909,10.875-2.842,16.263-4.445c4.206-1.252,8.507-2.118,12.888-2.545
				c1.419-0.138,2.107,0.219,1.555,1.728c-2.607,7.11-4.232,14.489-5.879,21.852c-0.821,3.676-2.088,7.242-2.43,11.057
				c-0.146,1.618,0.247,3.675-1.546,5.09c-0.159-0.447-0.286-0.681-0.319-0.928c-0.129-0.932,0.436-1.676,0.701-2.505
				c0.342-1.071,0.302-2.301-0.739-2.816c-0.971-0.479-1.477,0.652-1.984,1.333c-0.365,0.492-0.699,1.023-0.964,1.576
				c-5.515,11.485-14.042,20.584-23.209,29.15c-2.318,2.167-4.982,3.985-8.041,4.972c-1.995,0.644-4.251,1.232-5.745-1
				c-1.388-2.064-2.096-4.396-2.43-6.902c-0.517-3.883,0.009-7.722,0.08-11.582c0.047-2.517,1.117-3.467,3.548-3.352
				c2.881,0.137,5.487-0.941,7.452-2.892c5.665-5.629,9.923-12.041,10.577-20.355c0.401-5.116-2.588-7.807-6.477-10.114
				c-3.136-1.859-5.74-0.438-8.38,1.052c-1.711,0.967-3.13,2.31-4.286,3.876c-2.438,3.296-4.748,6.667-7.341,9.877
				c-5.565,6.895-10.45,14.335-15.747,21.456c-4.045,5.44-8.367,10.715-14.21,14.326c-4.691,2.897-7.263,1.586-8.58-3.875
				c-0.104-0.428-0.255-0.861-0.259-1.293c-0.026-3.752-1.694-7.5-0.052-11.268c0.133-0.312,0.194-0.705,0.146-1.04
				c-0.447-3.098,1.514-3.814,3.95-3.917c2.482-0.104,4.589-0.977,6.507-2.531c4.696-3.807,7.813-8.721,9.641-14.37
				c1.175-3.636,1.968-7.643-2.061-10.241c-3.409-2.2-7.087-2.555-10.982-0.847c-3.472,1.523-5.803,4.195-8.035,7.035
				c-0.635,0.809-1.514,1.923-0.872,2.832c0.7,0.984,1.541-0.864,2.665-0.385c-0.481,1.483-1.508,2.984-2.695,3.302
				c-2.637,0.707-2.711,0.581-3.924,2.909c-1.085,2.08-1.274,4.364-1.897,6.545c-1.992,6.978-3.188,14.053-2.604,21.36
				c0.637,7.964,7.969,14.841,15.99,14.991c9.535,0.176,15.605-5.715,20.824-12.445
				C263.189,152.466,265.828,149.045,267.724,145.153z M201.29,141.404c-0.246,1.95-0.583,3.894-0.721,5.851
				c-0.776,11.075-2.744,21.982-5.673,32.64c-4.072,14.821-10.8,28.461-20.902,40.171c-7.075,8.203-15.373,14.741-26.645,16.14
				c-3.796,0.472-7.199,0.161-9.767-3.531c-1.551-2.225-2.364-4.439-2.65-7.007c-0.105-0.972-0.228-2.052-1.418-2.272
				c-1.33-0.242-1.486,0.904-1.848,1.794c-2.04,5.031-0.013,9.778,1.062,14.57c0.26,1.151,1.488,1.662,2.482,2.254
				c2.49,1.479,5.363,1.892,8.079,2.177c7.755,0.818,15.036-1.192,21.692-5.121c6.789-4.003,12.554-9.232,17.77-15.18
				c6.503-7.413,11.425-15.764,15.654-24.577c2.54-5.297,4.565-10.797,6.272-16.433c1.702-5.629,3.498-11.199,4.429-17.045
				c0.756-4.746,1.574-9.476,2.244-14.241c0.832-5.918,1.501-11.826,1.904-17.784c0.332-4.908,0.558-9.875,1.544-14.671
				c0.818-3.967,0.339-6.77-3.249-9.011c-1.681-1.051-3.271-1.498-4.932-0.724c-1.713,0.796-2.822,2.163-2.964,4.32
				c-0.285,4.38-0.872,8.74-1.246,13.116c-0.214,2.51-0.588,4.782-2.936,6.398c-0.912,0.627-1.391,2.007-1.862,3.129
				c-2.904,6.913-8.682,11.417-13.843,16.397c-1.645,1.586-4.045,0.739-4.299-1.225c-0.3-2.352-0.597-4.747-0.475-7.101
				c0.446-8.703,2.685-17.087,5.112-25.389c1.464-5,0.999-6.305-4.061-7.802c-0.504-0.15-1.064-0.189-1.516-0.433
				c-1.594-0.852-2.763-0.135-3.121,1.276c-1.457,5.77-5.183,10.358-7.83,15.501c-4.038,7.85-8.374,15.511-14.936,21.612
				c-1.046,0.972-2.151,2.964-3.475,2.217c-1.14-0.643-0.328-2.746-0.104-4.208c0.801-5.216,2.299-10.254,3.811-15.297
				c1.353-4.515,1.982-9.271,4.63-13.337c1.212-1.861,0.713-3.299-1.092-4.452c-3.071-1.957-6.204-1.109-7.958,2.005
				c-3.489,6.202-4.887,13.148-7.295,19.734c-2.375,6.496-3.458,13.067-2.986,19.917c0.371,5.366,7.859,9.586,12.286,6.657
				c6.071-4.021,12.026-8.314,15.4-15.148c0.272-0.549,0.564-1.266,1.284-1.122c0.791,0.16,0.638,0.984,0.606,1.557
				c-0.134,2.512,0.552,4.894,1.117,7.287c1.131,4.778,5.281,6.53,8.943,8.744c0.254,0.154,0.73,0.128,1.026,0
				c2.226-0.95,4.66-1.186,6.71-2.866c1.624-1.333,2.802-3.129,4.413-4.249c3.128-2.174,4.563-5.782,7.517-8.033
				c0.479-0.364,0.811-1.268,0.772-1.896C198.11,144.331,199.877,143.029,201.29,141.404z M92.637,98.736
				c0.044-0.98,0.064-1.86,0.131-2.738c0.027-0.345,0.127-0.695,0.254-1.021c3.601-9.342,9.06-17.417,16.828-23.764
				c2.563-2.094,5.361-4.029,8.57-5.143c2.312-0.803,4.538,0.528,4.878,2.937c0.233,1.641-0.007,3.093-1.576,4.164
				c-1.778,1.211-1.771,2.708-0.207,4.17c2.315,2.169,8.081,2.017,10.3-0.262c4.072-4.179,4.269-8.959,0.254-12.965
				c-3.443-3.436-7.124-6.468-12.641-5.566c-2.314,0.379-4.748,0.157-7.121,0.041c-3.082-0.15-5.583,1.145-8.099,2.703
				c-4.56,2.827-8.03,6.838-11.66,10.636c-5.704,5.965-10.354,12.672-12.801,20.686c-1.72,5.637-1.124,10.94,2.483,15.75
				c2.838,3.784,6.438,6.672,10.422,9.19c2.893,1.829,5.65,3.892,8.35,6.002c1.168,0.913,2.384,2.2,0.525,3.662
				c-4.018,3.163-8.822,5.12-12.489,8.944c-2.612,2.725-6.119,4.606-8.895,7.314c-3.151,3.072-5.842,6.514-8.644,9.882
				c-5.621,6.755-10.286,13.997-12.422,22.634c-1.06,4.296,2.591,10.011,6.634,11.828c4.366,1.959,8.901,1.662,13.399,2.122
				c3.006,0.307,6.092-0.121,8.79-1.047c6.095-2.088,12.468-3.506,18.112-6.845c5.327-3.151,10.383-6.5,13.823-11.914
				c1.112-1.752,1.124-4.136,2.303-5.271c1.754-1.69,2.102-3.378,2.405-5.518c0.281-1.972,0.664-3.962,1.158-5.928
				c0.586-2.337,0.978-4.781,0.435-7.292c-1.665-7.711-4.625-14.681-10.509-20.219c-1.845-1.739-1.313-3.428,0.77-5.108
				c1-0.807,3.361-1.587,2.636-2.639c-0.868-1.26-2.682,0.35-3.919,0.987c-3.804,1.961-3.977,1.995-6.848-1.2
				c-2.535-2.818-5.176-5.593-8.553-7.35C94.782,108.035,92.717,103.979,92.637,98.736z M474.87,148.765
				c-0.694-1.137-0.421-1.899-0.194-2.65c2.98-9.914,5.782-19.878,7.867-30.02c0.619-3.012,0.64-6.125-0.487-9.119
				c-0.614-1.631-1.326-3.291-3.392-3.097c-2.055,0.191-2.837,1.81-3.207,3.671c-0.516,2.577-0.949,5.179-1.644,7.708
				c-3.103,11.26-6.301,22.495-9.436,33.748c-1.653,5.936-2.186,12.085-3.365,18.108c-0.77,3.932,3.241,9.27,7.336,9.329
				c0.94,0.013,1.748-0.435,2.277-1.161c0.981-1.346,2.063-2.64,2.62-4.253c2.196-6.375,5.621-12.134,9.277-17.718
				c3.505-5.354,7.081-10.684,11.178-15.626c0.48-0.581,0.734-1.763,1.604-1.514c1.037,0.295,0.77,1.502,0.679,2.315
				c-0.605,5.349-0.824,10.636,0.491,15.965c1.189,4.823,2.782,9.053,7.646,11.506c4.992,2.516,10.867,0.276,12.276-5.095
				c0.125-0.476,0.125-1.135-0.111-1.526c-0.864-1.424-0.209-2.51,0.592-3.617c2.059-2.851,4.295-5.576,5.982-8.69
				c1.357-2.507,2.469-5.038,1.646-7.977c-0.266-0.949-0.609-1.935-1.667-2.199c-1.052-0.264-1.52,0.646-2.057,1.339
				c-0.7,0.906-1.4,1.811-2.139,2.684c-3.64,4.304-6.969,8.827-9.892,13.652c-0.378,0.625-0.887,1.555-1.781,1.34
				c-0.919-0.224-0.734-1.267-0.918-2.01c-0.901-3.535-1.223-7.082-0.55-10.71c0.792-4.266,0.666-8.598,0.535-12.903
				c-0.09-3.053-1.104-5.693-4.388-6.82c-3.478-1.194-7.139-1.309-9.665,1.345c-3.377,3.541-6.152,7.68-8.993,11.697
				C480.215,140.391,477.678,144.491,474.87,148.765z M217.397,94.622c0.145-2.732-1.807-4.128-3.531-5.56
				c-1.618-1.341-6.745,0.11-7.635,2.009c-0.457,0.972,0.046,1.666,0.631,2.362c1.968,2.347,4.662,3.358,7.525,3.917
				C216.482,97.756,217.562,96.749,217.397,94.622z"/>
			<path d="M267.724,145.153c-1.896,3.893-4.534,7.313-7.103,10.624c-5.219,6.729-11.287,12.621-20.823,12.445
				c-8.023-0.149-15.354-7.027-15.992-14.99c-0.582-7.308,0.611-14.383,2.604-21.36c0.623-2.182,0.814-4.466,1.898-6.546
				c1.213-2.329,1.285-2.202,3.923-2.909c1.187-0.317,2.213-1.819,2.695-3.301c-1.122-0.479-1.965,1.369-2.662,0.384
				c-0.646-0.907,0.234-2.023,0.87-2.831c2.232-2.84,4.564-5.512,8.033-7.035c3.897-1.708,7.576-1.353,10.985,0.847
				c4.026,2.599,3.233,6.604,2.059,10.241c-1.829,5.649-4.944,10.562-9.64,14.37c-1.919,1.555-4.024,2.427-6.508,2.531
				c-2.437,0.104-4.396,0.818-3.95,3.917c0.049,0.334-0.011,0.728-0.146,1.04c-1.641,3.767,0.027,7.513,0.052,11.267
				c0.004,0.433,0.156,0.866,0.26,1.293c1.316,5.462,3.89,6.773,8.579,3.875c5.844-3.61,10.167-8.886,14.213-14.326
				c5.293-7.121,10.178-14.561,15.747-21.456c2.592-3.21,4.899-6.58,7.338-9.877c1.159-1.565,2.578-2.909,4.288-3.875
				c2.639-1.491,5.245-2.914,8.378-1.053c3.892,2.307,6.881,4.998,6.479,10.114c-0.655,8.314-4.912,14.727-10.578,20.355
				c-1.964,1.951-4.57,3.028-7.45,2.891c-2.431-0.117-3.503,0.834-3.549,3.352c-0.071,3.861-0.597,7.699-0.08,11.582
				c0.332,2.506,1.041,4.838,2.428,6.902c1.497,2.232,3.75,1.644,5.749,1c3.055-0.987,5.72-2.805,8.039-4.972
				c9.166-8.566,17.692-17.665,23.208-29.15c0.266-0.553,0.597-1.084,0.964-1.577c0.509-0.68,1.015-1.812,1.982-1.333
				c1.044,0.515,1.082,1.745,0.741,2.816c-0.265,0.829-0.83,1.573-0.7,2.505c0.032,0.246,0.16,0.48,0.319,0.928
				c1.792-1.415,1.4-3.472,1.547-5.09c0.339-3.813,1.606-7.38,2.429-11.057c1.646-7.362,3.271-14.743,5.878-21.852
				c0.551-1.508-0.138-1.866-1.555-1.728c-4.382,0.428-8.68,1.293-12.889,2.545c-5.388,1.603-10.954,2.537-16.26,4.446
				c-1.495,0.538-2.147-0.148-1.947-1.736c0.401-3.227,2.46-4.843,5.745-4.417c0.481,0.062,0.927,0.052,1.17-0.36
				c1.831-3.104,5.391-2.997,7.996-3.097c1.954-0.075,3.179-0.697,4.724-1.375c1.816-0.798,3.67-1.107,5.842-0.894
				c1.812,0.178,3.75-1.507,5.849-1.724c0.427-0.044,0.951-0.445,1.24-0.301c3.312,1.65,3.119-1.163,3.601-2.879
				c0.718-2.538,1.276-5.122,1.839-7.701c0.883-4.059,3.003-7.502,5.457-10.736c1.397-1.84,3.237-2.665,5.516-1.23
				c0.66,0.415,1.438,0.673,2.192,0.895c3.129,0.92,3.445,1.805,2.113,4.696c-1.621,3.509-3.151,7.077-4.135,10.83
				c-0.852,3.247-0.328,3.775,2.978,3.697c2.085-0.049,4.225,0.5,6.141-0.848c0.24-0.169,0.842-0.215,1.002-0.052
				c1.292,1.329,2.44,0.088,3.676,0.032c6.185-0.286,6.449-5.054,7.26-9.208c0.985-5.023,2.468-9.875,4.085-14.705
				c0.341-1.016,1.072-1.34,2.024-1.345c2.642-0.016,5.287,0.001,7.929-0.022c1.569-0.014,1.92,0.772,1.721,2.204
				c-0.714,5.064-2.303,9.916-3.569,14.843c-0.437,1.695-0.971,3.368-1.49,5.042c-0.343,1.107,0.08,1.69,1.175,1.859
				c1.044,0.161,2.087,0.347,3.138,0.449c1.745,0.169,2.631,1.17,3.049,2.806c0.425,1.668,0.238,3.075-1.062,4.348
				c-1.845,1.808-4.204,2.107-6.554,2.434c-1.354,0.189-1.896-1-2.729-2.037c-0.126,4.82-3.188,8.562-3.933,13.037
				c-0.056,0.342-0.073,0.847-0.289,0.982c-3.066,1.895-1.665,5.318-2.753,7.872c-0.956,2.239-1.995,4.441-2.521,6.84
				c-2.009,9.171-5.02,18.075-6.069,27.527c-0.634,5.719-0.603,11.381-0.834,17.071c-0.033,0.821-0.319,1.75,0.667,2.766
				c1.924-3.666,3.635-7.287,5.661-10.719c6.568-11.127,12.524-22.69,21.813-31.96c1.493-1.49,3.094-2.877,4.713-4.231
				c1.834-1.536,3.654-3.196,6.334-1.557c3.044,1.861,4.617,4.805,4.037,7.943c-0.191,1.034-0.704,2.021-0.808,3.056
				c-0.962,9.794-2.077,19.592-0.118,29.401c0.268,1.331,0.539,2.784,1.831,3.305c1.302,0.524,1.917-0.951,2.731-1.665
				c0.992-0.87,1.831-1.917,2.832-2.773c3.964-3.385,6.347-7.263,7.043-12.793c1.042-8.258,4.643-15.711,9.915-22.357
				c2.248-2.831,4.256-5.775,7.222-7.935c5.016-3.65,8.3-3.864,13.545-0.613c1.501,0.932,2.403,1.03,3.238-0.848
				c1.008-2.264,1.716-4.612,2.51-6.942c1.113-3.257,3.626-4.244,6.683-2.629c5.69,3.013,5.72,3.337,2.415,8.916
				c-1.719,2.902-2.036,6.31-2.836,9.53c-1.058,4.235-2.559,8.384-3.512,12.578c-0.759,3.332-2.872,6.468-1.782,10.463
				c0.686,2.52-0.049,5.558-1.365,8.388c-1.437,3.093-1.534,6.821-0.201,10.177c1.17,2.951,0.179,11.333-1.925,13.691
				c-1.349,1.51-2.268,1.34-2.812-0.693c-0.307-1.143-0.66-1.721-1.948-1.444c-1.652,0.356-2.161-0.656-2.315-2.085
				c-0.741-6.812-1.646-13.613-0.258-20.46c0.178-0.875,0.611-2.206-0.544-2.567c-1.02-0.319-1.572,0.916-2.147,1.664
				c-0.699,0.904-1.263,1.914-1.987,2.794c-4.442,5.409-11.375,5.098-17.041,3.536c-1.269-0.352-2.144-1.506-2.936-2.582
				c-1.087-1.476-1.978-0.981-2.451,0.397c-2.136,6.197-7.171,10.08-11.587,14.399c-1.789,1.75-4.451,2.055-6.626,0.509
				c-3.48-2.469-5.628-5.861-6.296-10.199c-1.215-7.923,0.204-15.821,0.031-23.73c-0.021-0.957-0.003-1.912-0.003-3.165
				c-2.427,1.45-4.347,2.369-5.28,5.362c-0.621,1.992-2.24,4.448-3.772,6.072c-2.258,2.39-3.151,5.207-4.546,7.903
				c-0.765,1.471-1.403,3.36-3.827,2.87c-1.086-0.22-1.119,0.631-1.208,1.529c-0.513,5.147-1.892,9.942-5.143,14.177
				c-1.061,1.382-1.517,3.306-2.669,4.778c-3.146,4.02-6.999,4.421-10.371,3.373c-3.717-1.153-5.002-4.701-5.427-8.367
				c-0.449-3.858-0.146-7.73-0.069-11.598c0.014-0.686,0.341-1.865-0.829-1.816c-0.9,0.039-1.2,1.149-0.988,1.881
				c0.487,1.684-0.188,2.593-1.561,3.429c-0.986,0.6-1.775,1.485-1.094,2.872c0.281,0.572,0.267,1.272-0.229,1.732
				c-3.3,3.05-3.867,7.548-5.933,11.254c-1.76,3.157-4.45,5.278-7.593,5.995c-3.513,0.802-7.383-0.429-9.369-3.571
				c-2.071-3.279-3.267-7.177-3.069-11.253c0.085-1.772,0.021-3.521-0.372-5.253c-0.943-4.161,0.606-8.149,0.869-12.228
				c0.073-1.133,0.206-2.273,0.439-3.38c0.474-2.219-1.866-2.052-2.767-3.035c-0.581-0.636-1.589,0.937-1.841,1.957
				c-0.242,0.985-1.419,1.676-0.892,2.909c0.075,0.186-0.121,0.703-0.182,0.702c-3.197-0.081-2.155,3.37-3.615,4.416
				c-6.384,4.575-10.397,12.059-18.151,14.887c-6.325,2.305-12.635,3.012-18.57-1.161c-2.976-2.093-4.407-5.341-5.23-8.625
				c-0.895-3.57-0.78-7.393-0.062-11.009C267.819,148.52,267.758,146.895,267.724,145.153z M328.506,164.943
				c-0.475,2.583-0.182,5.18,0.574,7.753c0.414,1.412,0.928,1.845,2.07,0.552c1.001-1.132,1.873-2.327,2.573-3.665
				c3.755-7.167,7.681-14.25,11.243-21.51c3.867-7.875,7.996-15.703,9.743-24.41c2.126-10.604,4.921-21.015,8.301-31.276
				c0.57-1.731,0.254-2.568-1.894-2.578c-4.432-0.021-8.744,0.733-13.049,1.55c-1.219,0.233-2.687-0.727-3.55,0.31
				c-1.668,2.003-3.48,3.967-4.393,6.487c-1.492,4.126-2.713,8.335-3.674,12.616c-1.379,6.13-4.062,11.937-4.467,18.313
				c-0.079,1.207-0.312,2.542-0.916,3.552c-2.094,3.489-2.195,7.393-2.563,11.227c-0.174,1.808,1.535,3.873-0.912,5.352
				c-0.233,0.143-0.104,1.007-0.031,1.521C328.256,155.422,328.283,160.149,328.506,164.943z M425.721,146.39
				c0,0.792-0.031,1.584,0.009,2.372c0.033,0.678-0.218,1.562,0.485,1.939c0.934,0.495,1.364-0.498,1.922-0.976
				c2.269-1.95,4.389-4.075,6.129-6.497c3.505-4.874,7.849-9.176,9.929-15.044c0.544-1.536,2.578-2.453,2.569-4.419
				c-0.007-2.058-1.712-3.206-2.803-4.615c-1.889-2.445-3.92-2.178-5.269,0.583c-1.131,2.312-2.62,4.319-4.288,6.274
				C429.395,131.876,426.937,138.882,425.721,146.39z M289.044,117.114c-2.572,1.68-7.732,11.318-7.72,14.263
				c0.003,0.36-0.038,0.748,0.349,0.884c0.605,0.21,0.987-0.222,1.313-0.635c1.84-2.351,3.676-4.742,4.765-7.523
				C288.606,121.923,290.055,119.74,289.044,117.114z"/>
			<path d="M201.29,141.404c-1.413,1.625-3.18,2.927-3.035,5.318c0.038,0.626-0.296,1.53-0.772,1.894
				c-2.955,2.251-4.391,5.858-7.519,8.033c-1.609,1.12-2.787,2.917-4.413,4.25c-2.05,1.68-4.482,1.916-6.71,2.866
				c-0.296,0.127-0.772,0.153-1.026-0.001c-3.662-2.215-7.811-3.965-8.941-8.744c-0.567-2.393-1.253-4.775-1.117-7.287
				c0.029-0.572,0.183-1.396-0.608-1.557c-0.719-0.143-1.012,0.573-1.282,1.122c-3.374,6.833-9.329,11.128-15.402,15.148
				c-4.426,2.929-11.913-1.291-12.284-6.657c-0.472-6.849,0.61-13.421,2.984-19.917c2.408-6.586,3.806-13.533,7.297-19.734
				c1.752-3.114,4.885-3.962,7.956-2.005c1.805,1.151,2.306,2.59,1.093,4.452c-2.646,4.065-3.276,8.821-4.631,13.337
				c-1.512,5.043-3.01,10.08-3.811,15.296c-0.225,1.462-1.036,3.566,0.104,4.209c1.325,0.747,2.429-1.245,3.476-2.218
				c6.561-6.102,10.896-13.762,14.935-21.611c2.649-5.144,6.373-9.732,7.831-15.502c0.357-1.41,1.528-2.127,3.12-1.276
				c0.453,0.244,1.014,0.283,1.518,0.433c5.058,1.497,5.522,2.802,4.061,7.802c-2.43,8.302-4.668,16.686-5.113,25.388
				c-0.121,2.354,0.174,4.75,0.476,7.101c0.252,1.964,2.653,2.812,4.298,1.225c5.16-4.981,10.938-9.483,13.842-16.396
				c0.474-1.124,0.952-2.503,1.862-3.13c2.35-1.616,2.722-3.888,2.936-6.398c0.374-4.375,0.961-8.736,1.246-13.116
				c0.142-2.158,1.253-3.524,2.964-4.32c1.66-0.774,3.252-0.327,4.934,0.723c3.586,2.241,4.065,5.044,3.249,9.011
				c-0.988,4.794-1.211,9.764-1.544,14.671c-0.404,5.958-1.074,11.866-1.903,17.784c-0.673,4.766-1.49,9.496-2.247,14.241
				c-0.93,5.844-2.725,11.416-4.429,17.045c-1.705,5.637-3.73,11.137-6.272,16.433c-4.229,8.813-9.149,17.165-15.652,24.577
				c-5.218,5.948-10.982,11.175-17.77,15.18c-6.658,3.928-13.938,5.939-21.692,5.122c-2.718-0.286-5.59-0.696-8.081-2.178
				c-0.992-0.591-2.223-1.103-2.482-2.254c-1.075-4.792-3.103-9.539-1.061-14.57c0.359-0.89,0.516-2.038,1.846-1.794
				c1.19,0.221,1.312,1.3,1.42,2.272c0.284,2.568,1.098,4.782,2.648,7.009c2.567,3.689,5.973,4.001,9.767,3.529
				c11.273-1.397,19.569-7.938,26.646-16.141c10.102-11.71,16.828-25.35,20.901-40.171c2.928-10.657,4.897-21.563,5.672-32.639
				C200.707,145.298,201.044,143.354,201.29,141.404z"/>
			<path d="M92.637,98.736c0.082,5.242,2.146,9.299,7.076,11.862c3.378,1.757,6.018,4.531,8.553,7.35
				c2.872,3.195,3.042,3.163,6.846,1.2c1.239-0.638,3.053-2.246,3.921-0.986c0.727,1.052-1.634,1.833-2.636,2.638
				c-2.084,1.68-2.614,3.371-0.77,5.108c5.882,5.539,8.843,12.508,10.509,20.22c0.544,2.51,0.152,4.954-0.435,7.292
				c-0.494,1.966-0.877,3.957-1.157,5.928c-0.305,2.139-0.653,3.828-2.407,5.518c-1.178,1.134-1.19,3.519-2.304,5.271
				c-3.438,5.414-8.494,8.763-13.821,11.914c-5.643,3.338-12.018,4.757-18.111,6.844c-2.7,0.926-5.785,1.353-8.792,1.047
				c-4.497-0.458-9.034-0.162-13.399-2.122c-4.043-1.815-7.694-7.532-6.633-11.827c2.136-8.639,6.802-15.879,12.422-22.634
				c2.802-3.369,5.491-6.811,8.644-9.884c2.776-2.707,6.281-4.588,8.895-7.313c3.667-3.824,8.472-5.781,12.489-8.945
				c1.857-1.462,0.641-2.749-0.525-3.662c-2.698-2.11-5.457-4.173-8.35-6.002c-3.983-2.517-7.584-5.405-10.422-9.19
				c-3.607-4.809-4.203-10.112-2.483-15.749c2.446-8.015,7.097-14.721,12.802-20.687c3.63-3.797,7.1-7.809,11.659-10.635
				c2.516-1.56,5.017-2.855,8.099-2.704c2.372,0.117,4.807,0.338,7.121-0.041c5.515-0.902,9.197,2.13,12.641,5.566
				c4.016,4.006,3.818,8.785-0.255,12.964c-2.218,2.279-7.982,2.433-10.301,0.262c-1.562-1.462-1.569-2.958,0.209-4.169
				c1.569-1.07,1.81-2.523,1.576-4.165c-0.341-2.408-2.568-3.739-4.878-2.937c-3.21,1.115-6.009,3.05-8.57,5.144
				c-7.767,6.347-13.226,14.422-16.828,23.766c-0.125,0.325-0.225,0.675-0.252,1.02C92.701,96.876,92.681,97.756,92.637,98.736z
				 M79.338,179.866c2.539,0.417,5.346-0.358,8.171-1.033c8.988-2.145,17.189-5.622,22.735-13.532
				c7.767-11.082,5.251-23.701-2.579-33.596c-0.419-0.531-1.178-1.462-1.66-0.954c-1.589,1.674-4.233,1.618-5.586,3.233
				c-3.726,4.451-8.869,7.302-12.599,11.771c-3.408,4.084-7.323,7.747-11.056,11.554c-4.551,4.643-7.693,9.874-7.388,16.675
				c0.143,3.172,2.379,5.634,5.588,5.865C76.279,179.945,77.604,179.866,79.338,179.866z"/>
			<path d="M474.87,148.765c2.808-4.274,5.345-8.374,8.125-12.301c2.84-4.018,5.614-8.156,8.991-11.697
				c2.528-2.653,6.188-2.538,9.665-1.344c3.284,1.127,4.298,3.767,4.392,6.82c0.129,4.305,0.254,8.636-0.537,12.903
				c-0.675,3.628-0.353,7.176,0.548,10.71c0.188,0.743,0,1.786,0.918,2.01c0.896,0.216,1.403-0.714,1.782-1.34
				c2.924-4.825,6.251-9.348,9.892-13.652c0.737-0.873,1.439-1.778,2.14-2.683c0.538-0.693,1.005-1.604,2.059-1.341
				c1.057,0.265,1.398,1.25,1.663,2.2c0.823,2.94-0.287,5.471-1.645,7.978c-1.689,3.114-3.925,5.839-5.984,8.69
				c-0.801,1.107-1.455,2.192-0.592,3.617c0.24,0.392,0.24,1.051,0.111,1.526c-1.409,5.373-7.281,7.612-12.276,5.096
				c-4.862-2.453-6.454-6.685-7.646-11.507c-1.312-5.328-1.094-10.616-0.491-15.965c0.095-0.814,0.358-2.02-0.677-2.315
				c-0.872-0.249-1.126,0.933-1.606,1.514c-4.097,4.943-7.671,10.273-11.176,15.626c-3.654,5.584-7.083,11.344-9.277,17.718
				c-0.555,1.612-1.637,2.907-2.619,4.253c-0.53,0.726-1.336,1.172-2.279,1.162c-4.095-0.059-8.106-5.396-7.336-9.33
				c1.182-6.022,1.711-12.172,3.364-18.107c3.136-11.252,6.336-22.487,9.436-33.747c0.697-2.528,1.13-5.131,1.644-7.708
				c0.372-1.863,1.152-3.48,3.209-3.672c2.063-0.192,2.777,1.467,3.392,3.099c1.126,2.993,1.107,6.106,0.489,9.118
				c-2.087,10.142-4.887,20.107-7.87,30.02C474.449,146.865,474.176,147.627,474.87,148.765z"/>
			<path d="M217.397,94.622c0.165,2.127-0.915,3.135-3.01,2.729c-2.863-0.558-5.558-1.57-7.525-3.917
				c-0.585-0.696-1.088-1.391-0.631-2.362c0.89-1.898,6.017-3.35,7.635-2.008C215.591,90.493,217.539,91.889,217.397,94.622z"/>
			<path fill="none" d="M328.506,164.943c-0.223-4.794-0.253-9.521-0.943-14.207c-0.077-0.512-0.202-1.378,0.031-1.521
				c2.447-1.48,0.738-3.545,0.912-5.352c0.368-3.834,0.47-7.738,2.563-11.227c0.605-1.009,0.837-2.345,0.916-3.552
				c0.405-6.377,3.088-12.183,4.467-18.313c0.962-4.28,2.182-8.489,3.674-12.616c0.912-2.52,2.725-4.482,4.393-6.487
				c0.863-1.037,2.331-0.077,3.55-0.31c4.305-0.817,8.617-1.571,13.049-1.55c2.147,0.011,2.464,0.847,1.894,2.578
				c-3.38,10.263-6.175,20.672-8.301,31.276c-1.748,8.707-5.876,16.533-9.743,24.41c-3.562,7.26-7.488,14.343-11.243,21.51
				c-0.7,1.338-1.572,2.533-2.573,3.665c-1.143,1.293-1.656,0.86-2.07-0.552C328.324,170.123,328.031,167.527,328.506,164.943z"/>
			<path fill="none" d="M425.721,146.39c1.216-7.507,3.674-14.513,8.684-20.381c1.668-1.956,3.157-3.962,4.288-6.275
				c1.349-2.76,3.376-3.028,5.266-0.583c1.094,1.409,2.799,2.558,2.806,4.615c0.008,1.965-2.025,2.882-2.572,4.419
				c-2.077,5.868-6.421,10.171-9.926,15.045c-1.742,2.422-3.86,4.546-6.129,6.496c-0.558,0.48-0.99,1.473-1.922,0.976
				c-0.703-0.375-0.452-1.259-0.486-1.938C425.689,147.973,425.721,147.181,425.721,146.39z"/>
			<path fill="none" d="M289.044,117.114c1.011,2.625-0.438,4.809-1.293,6.989c-1.089,2.781-2.925,5.171-4.765,7.523
				c-0.326,0.414-0.708,0.845-1.313,0.635c-0.387-0.136-0.346-0.524-0.349-0.884C281.312,128.433,286.472,118.794,289.044,117.114z"
				/>
			<path fill="none" d="M79.338,179.866c-1.733,0-3.059,0.079-4.373-0.016c-3.209-0.231-5.445-2.693-5.588-5.865
				c-0.306-6.801,2.837-12.032,7.388-16.675c3.732-3.808,7.647-7.47,11.056-11.554c3.73-4.469,8.873-7.32,12.599-11.771
				c1.353-1.615,3.997-1.559,5.586-3.233c0.482-0.509,1.241,0.423,1.66,0.954c7.83,9.895,10.346,22.514,2.579,33.596
				c-5.546,7.911-13.747,11.388-22.735,13.532C84.684,179.508,81.877,180.283,79.338,179.866z"/>
		</g>
	</g>
	<g id="Layer_2">
		<g>
			<g>
				<path fill="none" d="M320.002,446.229c-112.568,0-225.133-0.004-337.696,0.052c-1.948,0-2.389-0.438-2.388-2.387
					c0.06-67.02,0.06-134.039,0-201.06c-0.001-1.947,0.439-2.386,2.388-2.386c225.13,0.051,450.259,0.051,675.389,0
					c1.949,0,2.391,0.438,2.388,2.386c-0.059,67.021-0.059,134.04,0,201.06c0.003,1.948-0.437,2.387-2.388,2.387
					C545.132,446.226,432.564,446.229,320.002,446.229z M185.219,346.482c-0.017-2.664,0.826-4.784,1.447-6.876
					c2.04-6.875,3.898-13.79,5.535-20.769c1.088-4.629,2.301-9.265,0.246-13.972c-0.555-1.273-1.239-2.349-2.729-2.426
					c-1.62-0.086-2.597,0.996-3.095,2.34c-0.569,1.531-0.966,3.146-1.261,4.758c-2.322,12.686-7.045,24.715-10.118,37.195
					c-0.416,1.688-1.812,2.43-3.237,2.588c-2.077,0.231-4.042,0.837-6.038,1.326c-1.715,0.42-2.529-0.123-2.562-1.815
					c-0.018-0.944,0.123-1.896,0.235-2.836c0.424-3.6,0.82-7.146,0.441-10.835c-0.347-3.366-0.679-6.785,0.096-10.274
					c1.342-6.049-0.03-8.928-4.469-11.302c-1.779-0.949-3.271-0.885-4.553,0.826c-1.089,1.45-2.377,2.771-3.345,4.298
					c-1.154,1.817-2.019,2.144-3.139,0.015c-1.59-3.019-4.098-4.97-7.163-6.473c-4.391-2.15-5.438-2.226-8.818,1.22
					c-4.167,4.246-8.465,8.412-12.204,13.02c-2.241,2.761-4.498,5.723-5.796,9.138c-1.788,4.705-3.563,9.358-7.896,12.438
					c-0.625,0.445-1.071,1.135-1.671,1.629c-3.19,2.635-5.718,6.057-9.437,8.064c-2.581,1.397-3.893,0.635-4.057-2.289
					c-0.607-10.822,1.422-21.142,6.12-30.895c1.008-2.089,1.424-3.713-0.559-5.498c-2.279-2.047-4.416-2.655-6.818-1.571
					c-2.916,1.313-3.878,4.049-4.943,6.691c-3.688,9.143-5.026,18.818-6.075,28.511c-0.479,4.428,0.27,8.945,4.611,11.364
					c4.245,2.364,9.01,2.13,13.656,1.125c4.623-1.004,7.949-3.904,10.775-7.572c2.034-2.644,4.204-2.725,6.545-0.549
					c2.744,2.557,5.846,3.075,9.289,0.988c4.644-2.815,8.982-6.087,12.785-10.014c4.081-4.211,8.211-8.377,11.888-12.967
					c1.582-1.978,3.39-3.77,5.445-6.032c-0.124,2.002-0.305,3.449-0.283,4.894c0.085,6.154-0.535,12.262-1.076,18.377
					c-0.198,2.241-1.199,3.703-3.569,4.062c-2.022,0.307-4.353,1.314-5.379,2.436c-2.415,2.635-5.722,3.262-8.49,4.935
					c-3.636,2.201-7.683,3.72-10.814,6.741c-1.301,1.254-2.683,2.44-3.854,3.811c-2.187,2.549-6.64,3.312-6.286,7.898
					c0.018,0.237-0.414,0.509-0.643,0.755c-2.74,2.977-5.713,5.771-8.144,8.977c-1.934,2.552-4.804,5.261-1.88,9.039
					c0.329,0.422,0.221,1.396,0,2c-1.08,2.958-1.56,6.005-1.643,9.136c-0.016,0.604,0.007,1.382-0.778,1.414
					c-0.925,0.04-1.223-0.925-1.006-1.479c0.992-2.53-0.074-5.405,1.446-7.835c0.474-0.755,0.656-1.854-0.378-2.237
					c-1.216-0.452-1.279,0.777-1.562,1.542c-2.555,6.894-2.771,13.879-1.133,21.036c1.524,6.657,6.66,10.729,12.283,11.551
					c8.401,1.229,15.941-1.306,22.573-6.701c6.11-4.969,10.132-11.413,13.434-18.372c4.429-9.336,9.242-18.456,11.343-28.805
					c1.558-7.677,3.076-15.369,4.62-23.051c0.321-1.607,0.828-2.637,2.579-3.073c2.001-0.497,3.917-1.357,5.855-2.089
					c0.554-0.209,1.079-0.751,1.673-0.311c0.655,0.485,0.557,1.298,0.336,1.921c-0.912,2.567-0.78,5.299-1.373,7.913
					c-1.142,5.025-0.966,5.412,3.325,8.214s5.505,2.495,7.97-2.054c0.286-0.525,0.458-1.113,0.646-1.686
					c1.498-4.561,3.922-8.683,6.267-12.818c1.758-3.103,3.882-6.008,5.957-8.92c2.649-3.72,5.411-7.36,8.132-11.031
					c0.307-0.413,0.64-0.928,1.238-0.707c0.56,0.199,0.625,0.796,0.64,1.317c0.016,0.602-0.018,1.208-0.073,1.811
					c-0.701,7.29-0.585,14.382,3.019,21.147c1.852,3.474,4.797,5.071,8.122,5.715c4.963,0.965,9.147-3.668,8.472-8.779
					c-0.044-0.332-0.098-0.771,0.069-1.004c2.099-2.924,4.239-5.819,6.368-8.722c-0.611,5.137-1.256,10.018,0.686,14.746
					c1.715,4.181,4.179,7.96,8.984,8.924c8.821,1.771,16.415-0.922,22.688-7.219c2.531-2.541,4.397-5.739,7.863-7.318
					c0.698-0.316,1.53-1.289,1.542-1.972c0.033-1.976,0.296-3.413,2.732-3.436c0.537-0.005,0.238-1.013,0.449-1.286
					c1.258-1.649,0.189-5.644,4.396-4.434c0.787,0.226,0.984-0.771,1.325-1.363c0.457-0.792-0.301-1.725,0.343-2.49
					c1.063-0.081,1.533,0.762,2.047,1.389c3.312,4.048,7.735,6.254,12.61,7.723c4.129,1.241,8.276,2.42,12.394,3.697
					c1.119,0.348,2.92,0.534,2.969,1.702c0.061,1.512-1.824,1.837-3.016,2.409c-4.957,2.383-10.354,3.249-15.671,4.335
					c-1.444,0.296-3.025,0.3-4.755-0.49c2.982-0.942,1.867-3.968,3.345-5.663c0.654-0.748-0.002-1.124-0.922-1.147
					c-2.903-0.079-5.306,0.953-7.64,2.673c-4.786,3.521-5.614,9.692-1.718,14.248c0.688,0.808,1.641,1.124,2.553,1.055
					c3.525-0.278,7.095-0.446,10.534-1.181c1.614-0.344,3.938,0.279,4.574-0.528c1.886-2.394,4-2.028,6.368-1.649
					c0.801,0.125,1.447-0.48,2.153-0.8c3.219-1.468,6.43-2.947,9.691-4.318c2.09-0.879,3.551-2.246,4.584-4.289
					c1.295-2.562,0.715-5.253,0.986-7.888c0.305-2.983-1.119-4.758-3.521-6.033c-1.066-0.565-2.18-1.049-3.287-1.54
					c-6.972-3.094-14.34-5.022-21.597-7.268c-4.737-1.465-6.001-3.772-3.341-6.838c6.938-8.002,15.591-13.347,25.881-15.873
					c1.859-0.458,4.064-1.317,5.842-0.227c2.756,1.688,3.254-0.096,3.82-2.024c1.316-4.493-1.693-9.233-5.664-8.697
					c-6.854,0.925-13.717,2.289-19.923,5.294c-9.114,4.417-17.301,10.121-21.359,20.103c-0.84,2.066-2.062,3.989-3.22,5.91
					c-4.22,7.014-9.586,13.104-15.386,18.822c-3.512,3.464-7.032,6.951-11.734,8.846c-3.967,1.598-6.205,0.585-7.597-3.489
					c-1.843-5.404-1.132-10.929-0.666-16.435c0.149-1.754,1.305-2.259,2.891-2.252c4.247,0.016,7.388-2.08,9.939-5.276
					c0.593-0.741,1.205-1.47,1.778-2.23c3.669-4.854,6.261-10.101,6.354-16.372c0.075-5.033-3.496-7.261-7.112-9.3
					c-2.682-1.511-5.177,0.018-7.52,1.367c-1.438,0.829-2.588,1.978-3.654,3.265c-3.578,4.318-5.955,9.323-8.117,14.406
					c-0.867,2.043-3.828,2.934-3.459,5.137c0.494,2.948-1.331,3.784-2.882,5.529c-3.887,4.369-7.807,8.805-10.613,14.042
					c-0.523,0.974-1.349,1.792-2.065,2.658c-0.81,0.979-1.563,0.884-1.737-0.386c-0.376-2.73-1.37-5.342-1.175-8.189
					c0.359-5.242,1.433-10.428,1.052-15.736c-0.265-3.688-1.894-6.197-5.176-7.297c-3.345-1.121-7.513-0.076-9.479,2.421
					c-5.083,6.455-10.22,12.875-14.185,20.125C187.061,344.784,186.61,345.756,185.219,346.482z M420.846,327.922
					c-2.909,5.799-4.775,11.741-5.326,18.099c-0.32,3.698,2.562,9.06,6.171,9.779c7.752,1.546,12.823,0.871,17.8-6.445
					c0.433-0.631,0.728-1.611,1.661-1.352c0.949,0.266,0.679,1.292,0.682,2.029c0.024,5.625,0.021,11.25,0.016,16.875
					c-0.002,1.485,0.113,2.947,0.743,4.315c0.32,0.698,0.643,1.649,1.604,1.37c1.558-0.452,1.94,0.397,2.359,1.589
					c0.513,1.461,1.399,1.621,2.499,0.445c2.579-2.75,3.613-10.938,1.671-14.125c-0.67-1.1-0.546-2.15-0.247-3.237
					c0.856-3.087,0.674-6.316,2.131-9.389c1.766-3.727-2-8.435,1.592-12.134c0.178-0.185,0.082-0.676,0.052-1.017
					c-0.099-1.148,0.394-2.163,0.614-3.232c0.574-2.81,1.829-5.405,2.437-8.151c1.211-5.475,2.005-11.041,5.245-15.84
					c0.612-0.911,0.823-2.015-0.167-2.829c-1.606-1.312-3.263-2.674-5.278-3.223c-2.246-0.617-4.104,0.023-4.988,2.467
					c-0.907,2.517-1.89,5.005-2.812,7.515c-0.626,1.705-1.676,1.836-2.989,0.814c-4.915-3.818-9.564-2.499-13.903,0.925
					c-3.017,2.38-5.982,4.602-9.56,6.253c-3.151,1.457-5.978,1.687-9.218,1.192c-3.685-0.562-5.979-3.274-8.805-5.17
					c-1.415-0.949-2.82-2.448-4.636-1.13c-1.769,1.283-2.795,3.051-2.033,5.414c0.209,0.646,0.331,1.356,0.307,2.031
					c-0.414,10.921-3.79,21-8.819,30.591c-0.393,0.745-0.964,1.461-1.612,1.998c-1.659,1.38-2.659,1.031-3.452-0.983
					c-1.31-3.331-1.539-6.968-1.768-10.363c-0.558-8.352-0.404-16.772-0.08-25.148c0.112-2.962-0.53-5.004-2.875-6.618
					c-0.641-0.439-1.272-0.902-1.87-1.397c-2.304-1.92-3.118-1.824-4.576,0.711c-6.073,10.563-12.07,21.168-18.208,31.689
					c-2.654,4.549-5.16,9.224-8.786,13.128c-0.449,0.482-0.903,1.247-1.688,0.946c-0.804-0.311-0.479-1.189-0.593-1.84
					c-0.842-4.82,0.513-9.422,1.369-14.079c1.065-5.795,2.955-11.341,5.146-16.786c2.132-5.299,4.647-10.417,7.259-15.498
					c1.386-2.695,0.645-4.11-2.217-4.715c-1.104-0.234-1.816-0.823-2.604-1.525c-1.958-1.751-4.333-1.539-5.499,0.655
					c-4.438,8.341-7.796,17.14-10.729,26.101c-1.668,5.09-2.715,10.347-3.711,15.594c-0.826,4.347-0.84,8.808-0.035,13.156
					c0.695,3.759,3.508,6.065,6.65,7.896c5.615,3.272,10.154,3.286,13.81-2.275c0.614-0.933,1.149-1.938,1.595-2.966
					c1.303-3.007,2.575-6.033,3.803-9.071c1.176-2.915,4.811-4.43,4.605-8.16c-0.019-0.322,0.701-0.703,1.099-1.032
					c0.692-0.573,1.305-1.265,1.315-2.159c0.059-4.267,3.668-6.53,5.393-10.334c0.861,2.664,0.823,4.91,0.783,7.135
					c-0.085,4.684,0.082,9.338,1.111,13.926c0.782,3.48,1.741,6.962,4.188,9.646c2.589,2.842,5.722,5.351,9.682,5.493
					c4.387,0.156,9.475-5.33,9.861-9.9c0.091-1.091,0.501-2.003,1.392-2.674c0.555-0.418,1.225-0.832,1.173-1.606
					c-0.166-2.501,0.955-4.709,1.629-6.984c1.413-4.772,3.424-9.382,3.345-14.503c-0.01-0.65,0.384-1.313,0.609-1.966
					c0.331-0.95,0.847-1.49,1.938-0.934C411.425,329.108,415.989,328.284,420.846,327.922z M74.609,310.484
					c1.464,0.171,2.817,0.182,3.347-1.371c1.59-4.664,4.227-8.82,6.289-13.24c2.586-5.543,4.977-11.13,8.443-16.226
					c3.801-5.588,6.689-11.875,13.063-15.296c1.194-0.642,1.232-1.818-0.379-2.472c-4.182-1.691-7.977-1.036-11.292,1.955
					c-3.56,3.207-6.416,7.053-8.915,11.093c-6.194,10.018-11.08,20.705-15.844,31.464c-7.526,16.996-13.62,34.582-21.29,51.518
					c-2.775,6.131-5.071,12.539-9.921,17.479c-3.218,3.276-4.566,3.111-7.029-0.843c-0.633-1.014-1.103-2.161-1.478-3.303
					c-2.084-6.371-3.132-13.021-3.239-19.623c-0.255-15.623-0.892-31.271,1.748-46.835c1.386-8.156,2.443-16.366,4.153-24.476
					c0.604-2.865,1.309-5.734,1.249-8.719c-0.066-3.366-1.606-4.443-4.831-3.144c-1.355,0.545-2.557,1.518-4.081,1.577
					c-2.391,0.093-2.979,1.595-3.104,3.644c-0.193,3.104-0.362,6.221-0.794,9.293c-0.853,6.056-1.757,12.109-2.876,18.119
					c-0.764,4.105-0.809,8.251-1.251,12.367c-0.761,7.113-1.609,14.219-1.762,21.374c-0.149,7.092,0.115,14.164,0.662,21.247
					c0.563,7.326,0.844,14.656,3.48,21.622c1.451,3.83,3.475,7.571,7.651,8.566c5.904,1.41,11.465,0.108,16.156-4.104
					c7.762-6.971,12.319-15.959,15.8-25.518c1.749-4.797,4.136-9.581,3.186-15.018c-0.096-0.548,0.226-1.181,0.391-1.761
					c0.169-0.601,0.579-0.934,1.146-0.531c2.067,1.474,2.114-0.269,2.684-1.53c1.763-3.897,2.528-8.147,4.589-11.972
					c1.169-2.171,2.986-4.704,0.185-7.803c4.148,0.815,3.826-2.402,4.936-4.235C76.49,312.449,75.617,311.537,74.609,310.484z
					 M554.544,347.575c-0.16-0.471-0.292-0.647-0.255-0.78c2.541-9.676,5.6-19.217,7.611-29.025c0.806-3.937,2.18-7.846,0.44-11.929
					c-0.669-1.564-1.183-3.219-3.122-3.373c-2.03-0.162-2.862,1.329-3.269,3.047c-1.096,4.614-1.935,9.303-3.258,13.852
					c-4.006,13.82-8.579,27.493-10.804,41.763c-0.441,2.84-1.384,6.048,0.445,8.592c3.999,5.557,8.573,4.902,11.193-1.349
					c0.035-0.08,0.068-0.162,0.104-0.24c2.318-5.117,4.402-10.306,7.731-14.953c4.162-5.813,7.631-12.125,12.39-17.526
					c0.47-0.533,0.664-1.719,1.62-1.313c0.794,0.338,0.492,1.389,0.496,2.138c0.027,4.5-0.362,9.038,0.117,13.486
					c0.654,6.103,2.627,11.674,9.214,14.068c2.297,0.836,4.72,1.361,6.56-0.532c2.03-2.092,5.29-3.799,3.749-7.724
					c-0.376-0.957,0.258-1.646,0.792-2.327c2.672-3.4,5.031-6.985,7.04-10.834c1.187-2.268,0.78-4.375-0.012-6.461
					c-0.623-1.646-1.919-1.793-2.923-0.306c-3.194,4.726-7.475,8.646-10.121,13.785c-0.814,1.583-2.07,4.1-3.471,3.702
					c-1.559-0.444-1.53-3.146-1.609-5.054c-0.247-6.152,0.371-12.266,0.807-18.386c0.243-3.431-1.379-6.763-4.084-7.991
					c-3.483-1.584-8.209-1.138-10.172,1.249c-2.854,3.469-5.636,7.017-8.208,10.696C560.454,338.276,557.61,342.875,554.544,347.575
					z M522.993,358.13c0.046,0.003,0.092,0.003,0.137,0.003c0,3.544-0.181,7.103,0.075,10.629c0.134,1.794,0.179,4.239,3.24,3.963
					c0.554-0.052,0.746,0.603,1.012,1.06c1.225,2.092,2.214,2.157,3.396,0.024c1.803-3.252,2.268-6.854,2.233-10.519
					c-0.007-0.658-0.261-1.399-0.63-1.949c-2.461-3.678-0.535-7.545,0.307-10.885c0.853-3.371,2.176-6.325,0.471-9.679
					c-0.302-0.597-0.328-1.376,0.099-1.721c2.952-2.381,1.748-6.099,2.983-9.062c3.003-7.199,2.719-15.486,7.202-22.245
					c0.64-0.965,1.015-2.2-0.015-3.104c-1.754-1.541-3.692-2.908-6.045-3.311c-2.02-0.348-3.521,0.46-4.222,2.549
					c-0.766,2.289-1.629,4.547-2.454,6.817c-0.806,2.21-1.972,2.743-4.028,1.188c-3.615-2.727-7.298-2.303-11.117-0.141
					c-3.978,2.255-6.592,5.684-9.216,9.276c-5.156,7.054-8.644,14.691-9.618,23.451c-0.266,2.378-0.505,4.58,0.916,6.709
					c3.255,4.888,9.724,6.787,15.56,4.546c3.499-1.344,5.861-3.873,7.744-6.987c0.342-0.566,0.718-1.427,1.5-1.223
					c0.914,0.234,0.473,1.133,0.473,1.784C522.992,352.245,522.993,355.188,522.993,358.13z M477.648,328.071
					c-0.23-0.035-0.464-0.069-0.697-0.104c1.86-3.539,0.756-7.36,1.711-11.009c0.867-3.324,0.784-6.798,1.532-10.175
					c0.554-2.494-0.602-3.166-4.832-4.015c-1.92-0.387-2.705,0.87-3.212,2.29c-0.575,1.615-0.978,3.301-1.356,4.979
					c-2.419,10.692-3.485,21.599-4.953,32.432c-0.811,5.994-1.301,12.026-2.919,17.877c-0.651,2.354,0.07,4.051,2.146,5.252
					c2.007,1.159,3.542,0.387,5.131-0.986c3.963-3.429,5.252-8.282,6.817-12.897c3.433-10.116,7.747-19.769,13.985-28.471
					c2.294-3.198,4.887-6.122,9.619-5.157c1.462,0.298,2.138-1.258,2.733-2.385c0.451-0.845,0.197-1.691-0.532-2.342
					c-2.113-1.883-8.167-2.235-10.632-0.644c-3.785,2.447-7.414,5.074-10.057,8.81C480.605,323.683,479.141,325.888,477.648,328.071
					z M97.123,310.553c0.86,0,1.724,0.036,2.584-0.012c1.108-0.059,2.039-0.537,2.49-1.573c0.46-1.06-0.329-1.824-0.923-2.521
					c-2.526-2.958-6.437-3.002-9.12-0.22c-1.009,1.049-0.79,1.951-0.016,2.963C93.454,310.919,95.326,310.617,97.123,310.553z"/>
				<path d="M185.219,346.482c1.394-0.727,1.842-1.698,2.319-2.569c3.966-7.25,9.103-13.672,14.187-20.126
					c1.964-2.498,6.133-3.543,9.479-2.422c3.282,1.1,4.91,3.608,5.175,7.3c0.383,5.306-0.691,10.491-1.052,15.733
					c-0.193,2.848,0.8,5.46,1.177,8.189c0.173,1.272,0.927,1.364,1.736,0.386c0.716-0.864,1.542-1.685,2.063-2.658
					c2.809-5.235,6.728-9.671,10.616-14.041c1.55-1.745,3.374-2.582,2.882-5.53c-0.369-2.201,2.59-3.094,3.459-5.136
					c2.162-5.082,4.538-10.089,8.116-14.407c1.066-1.287,2.215-2.434,3.655-3.265c2.342-1.35,4.838-2.878,7.52-1.367
					c3.616,2.039,7.187,4.269,7.111,9.3c-0.094,6.271-2.685,11.521-6.355,16.374c-0.571,0.759-1.186,1.487-1.78,2.23
					c-2.549,3.195-5.69,5.292-9.936,5.276c-1.586-0.009-2.741,0.496-2.891,2.252c-0.467,5.504-1.177,11.028,0.666,16.433
					c1.39,4.074,3.626,5.087,7.597,3.49c4.701-1.896,8.222-5.382,11.733-8.847c5.799-5.718,11.165-11.809,15.386-18.822
					c1.157-1.921,2.379-3.843,3.22-5.91c4.058-9.981,12.245-15.686,21.359-20.101c6.206-3.007,13.067-4.37,19.921-5.296
					c3.971-0.536,6.982,4.206,5.666,8.7c-0.566,1.926-1.064,3.711-3.818,2.023c-1.783-1.093-3.982-0.233-5.844,0.225
					c-10.289,2.528-18.942,7.871-25.882,15.874c-2.66,3.065-1.395,5.372,3.343,6.837c7.256,2.245,14.625,4.174,21.596,7.268
					c1.105,0.492,2.221,0.975,3.287,1.542c2.404,1.273,3.824,3.048,3.521,6.031c-0.27,2.637,0.309,5.326-0.984,7.888
					c-1.035,2.043-2.496,3.41-4.586,4.291c-3.26,1.371-6.473,2.85-9.691,4.316c-0.705,0.319-1.355,0.925-2.154,0.8
					c-2.367-0.378-4.479-0.744-6.368,1.649c-0.634,0.81-2.959,0.187-4.574,0.528c-3.44,0.734-7.007,0.902-10.533,1.181
					c-0.913,0.073-1.864-0.247-2.553-1.055c-3.896-4.556-3.068-10.727,1.718-14.248c2.331-1.718,4.736-2.75,7.64-2.673
					c0.921,0.023,1.576,0.399,0.922,1.149c-1.478,1.695-0.363,4.719-3.344,5.665c1.729,0.786,3.309,0.782,4.752,0.486
					c5.319-1.086,10.716-1.952,15.673-4.333c1.189-0.574,3.076-0.897,3.016-2.411c-0.051-1.167-1.848-1.353-2.971-1.701
					c-4.115-1.277-8.263-2.455-12.391-3.698c-4.878-1.467-9.299-3.675-12.613-7.723c-0.513-0.627-0.981-1.469-2.045-1.389
					c-0.646,0.766,0.113,1.698-0.342,2.491c-0.344,0.591-0.54,1.588-1.329,1.362c-4.206-1.21-3.135,2.786-4.396,4.434
					c-0.209,0.273,0.091,1.281-0.447,1.287c-2.438,0.022-2.699,1.459-2.732,3.435c-0.012,0.683-0.846,1.656-1.541,1.972
					c-3.465,1.579-5.332,4.777-7.865,7.318c-6.271,6.297-13.865,8.99-22.687,7.219c-4.804-0.964-7.269-4.741-8.986-8.924
					c-1.94-4.726-1.295-9.609-0.684-14.745c-2.129,2.901-4.268,5.797-6.368,8.721c-0.167,0.233-0.113,0.673-0.07,1.005
					c0.676,5.11-3.508,9.743-8.471,8.78c-3.325-0.646-6.27-2.243-8.121-5.717c-3.604-6.766-3.721-13.857-3.021-21.147
					c0.058-0.6,0.091-1.208,0.075-1.81c-0.014-0.522-0.082-1.116-0.639-1.318c-0.599-0.218-0.935,0.295-1.241,0.709
					c-2.72,3.671-5.481,7.31-8.13,11.031c-2.075,2.912-4.197,5.816-5.957,8.919c-2.346,4.135-4.767,8.257-6.267,12.818
					c-0.188,0.571-0.362,1.159-0.646,1.685c-2.466,4.549-3.679,4.855-7.971,2.054c-4.291-2.802-4.467-3.186-3.327-8.214
					c0.594-2.614,0.461-5.346,1.373-7.911c0.223-0.623,0.32-1.436-0.334-1.923c-0.594-0.44-1.121,0.103-1.673,0.312
					c-1.939,0.734-3.854,1.591-5.855,2.088c-1.751,0.439-2.257,1.468-2.58,3.075c-1.542,7.682-3.062,15.372-4.619,23.049
					c-2.101,10.35-6.914,19.469-11.343,28.805c-3.303,6.961-7.324,13.403-13.433,18.372c-6.634,5.396-14.174,7.93-22.574,6.701
					c-5.623-0.821-10.759-4.894-12.283-11.551c-1.639-7.157-1.423-14.14,1.134-21.036c0.283-0.763,0.346-1.994,1.562-1.542
					c1.031,0.383,0.851,1.482,0.377,2.237c-1.521,2.43-0.454,5.307-1.446,7.835c-0.217,0.554,0.079,1.519,1.006,1.48
					c0.783-0.033,0.761-0.812,0.778-1.415c0.084-3.13,0.561-6.179,1.643-9.136c0.222-0.604,0.329-1.576,0-2.001
					c-2.925-3.775-0.054-6.487,1.878-9.039c2.431-3.205,5.405-6,8.145-8.977c0.228-0.246,0.661-0.518,0.644-0.755
					c-0.354-4.587,4.099-5.35,6.284-7.896c1.171-1.369,2.555-2.557,3.856-3.812c3.131-3.02,7.179-4.54,10.813-6.739
					c2.769-1.675,6.075-2.302,8.491-4.937c1.024-1.121,3.356-2.129,5.377-2.436c2.372-0.359,3.373-1.821,3.571-4.061
					c0.541-6.117,1.16-12.225,1.073-18.377c-0.02-1.446,0.162-2.893,0.285-4.896c-2.056,2.263-3.863,4.055-5.447,6.032
					c-3.675,4.592-7.805,8.756-11.887,12.97c-3.801,3.926-8.143,7.197-12.784,10.011c-3.444,2.089-6.545,1.57-9.289-0.986
					c-2.341-2.177-4.511-2.097-6.545,0.547c-2.826,3.669-6.152,6.571-10.775,7.572c-4.646,1.005-9.413,1.239-13.657-1.125
					c-4.341-2.417-5.091-6.937-4.61-11.364c1.05-9.692,2.388-19.366,6.075-28.511c1.065-2.643,2.027-5.378,4.942-6.69
					c2.403-1.085,4.54-0.477,6.818,1.572c1.981,1.783,1.566,3.407,0.561,5.496c-4.7,9.754-6.728,20.072-6.121,30.895
					c0.164,2.924,1.475,3.688,4.057,2.291c3.717-2.01,6.246-5.432,9.438-8.066c0.599-0.494,1.044-1.184,1.669-1.628
					c4.333-3.081,6.11-7.734,7.896-12.439c1.299-3.415,3.556-6.374,5.797-9.135c3.741-4.608,8.037-8.774,12.204-13.022
					c3.38-3.443,4.428-3.37,8.816-1.219c3.069,1.502,5.576,3.453,7.164,6.473c1.119,2.128,1.986,1.802,3.138-0.016
					c0.97-1.524,2.258-2.845,3.347-4.298c1.283-1.71,2.774-1.775,4.553-0.826c4.439,2.374,5.811,5.253,4.469,11.302
					c-0.776,3.491-0.441,6.908-0.098,10.275c0.38,3.688-0.016,7.238-0.439,10.834c-0.112,0.943-0.255,1.893-0.235,2.836
					c0.031,1.692,0.848,2.236,2.562,1.817c1.994-0.491,3.959-1.097,6.039-1.326c1.425-0.16,2.82-0.9,3.236-2.59
					c3.071-12.48,7.796-24.51,10.117-37.195c0.296-1.611,0.691-3.227,1.263-4.758c0.497-1.344,1.474-2.424,3.094-2.34
					c1.489,0.077,2.174,1.152,2.729,2.427c2.056,4.708,0.842,9.344-0.245,13.971c-1.636,6.979-3.496,13.895-5.536,20.769
					C186.045,341.695,185.202,343.818,185.219,346.482z M107.964,416.576c-0.809,2.792,0.861,4.773,1.317,7.026
					c0.968,4.779,4.212,6.443,8.812,5.024c6.954-2.147,10.701-8.229,15.939-12.472c1.567-1.271,1.227-3.352,1.954-4.985
					c0.21-0.471,0.445-0.939,0.722-1.374c2.964-4.703,4.64-10.008,6.979-15.003c2.908-6.204,4.308-12.935,5.856-19.564
					c0.8-3.429,1.552-6.885,2.269-10.341c0.136-0.647,0.345-1.477-0.198-1.99c-0.681-0.647-1.269,0.12-1.834,0.409
					c-8.285,4.26-16.158,9.009-22.907,15.65c-4.324,4.255-8.39,8.477-11.686,13.667C110.42,400.131,106.929,407.772,107.964,416.576
					z M123.138,349.479c0.666,0.308,1.038,0.049,1.344-0.247c3.139-3.056,6.242-6.146,9.4-9.181
					c3.287-3.161,4.771-7.849,8.885-10.33c0.881-0.532,1.518-1.854,0.613-2.703c-1.708-1.601-1.798-3.604-2.116-5.65
					c-0.134-0.872-0.302-2.07-1.328-2.353c-1.146-0.315-1.854,0.623-2.528,1.447c-3.59,4.396-6.745,9.108-9.683,13.937
					C124.923,338.999,123.646,344.175,123.138,349.479z M254.015,317.167c-0.06-0.732,0.002-1.312-0.507-1.615
					c-0.354-0.212-0.622,0.11-0.84,0.373c-3.298,3.973-5.325,8.578-6.714,13.501c-0.118,0.415-0.131,0.938,0.423,1.04
					c0.268,0.049,0.686-0.145,0.884-0.361C250.685,326.324,252.819,321.878,254.015,317.167z"/>
				<path d="M420.846,327.922c-4.856,0.362-9.421,1.187-13.749-1.014c-1.091-0.553-1.607-0.016-1.938,0.937
					c-0.226,0.651-0.619,1.314-0.609,1.967c0.077,5.12-1.935,9.728-3.345,14.499c-0.674,2.276-1.795,4.484-1.629,6.985
					c0.05,0.776-0.618,1.191-1.174,1.608c-0.89,0.671-1.3,1.583-1.391,2.673c-0.387,4.57-5.475,10.058-9.864,9.901
					c-3.959-0.142-7.09-2.651-9.68-5.495c-2.445-2.683-3.404-6.166-4.187-9.646c-1.029-4.584-1.196-9.241-1.113-13.923
					c0.042-2.224,0.08-4.472-0.782-7.135c-1.726,3.803-5.333,6.066-5.392,10.331c-0.013,0.895-0.623,1.588-1.315,2.16
					c-0.397,0.331-1.117,0.709-1.099,1.034c0.205,3.73-3.43,5.244-4.605,8.158c-1.229,3.038-2.5,6.064-3.805,9.072
					c-0.446,1.028-0.979,2.031-1.595,2.967c-3.653,5.561-8.194,5.544-13.808,2.273c-3.143-1.83-5.955-4.137-6.65-7.895
					c-0.805-4.351-0.791-8.81,0.035-13.159c0.996-5.245,2.043-10.501,3.707-15.594c2.938-8.96,6.293-17.759,10.731-26.1
					c1.168-2.192,3.543-2.405,5.501-0.656c0.787,0.705,1.499,1.293,2.604,1.526c2.861,0.603,3.603,2.019,2.215,4.715
					c-2.612,5.079-5.125,10.199-7.258,15.496c-2.189,5.446-4.079,10.993-5.145,16.79c-0.856,4.656-2.211,9.258-1.371,14.076
					c0.115,0.649-0.211,1.529,0.595,1.84c0.783,0.301,1.239-0.464,1.688-0.944c3.626-3.904,6.132-8.579,8.785-13.128
					c6.139-10.524,12.136-21.128,18.208-31.689c1.458-2.536,2.273-2.633,4.577-0.713c0.598,0.497,1.229,0.957,1.868,1.399
					c2.347,1.614,2.988,3.656,2.877,6.62c-0.324,8.374-0.478,16.796,0.08,25.146c0.229,3.396,0.458,7.031,1.768,10.364
					c0.793,2.013,1.793,2.36,3.452,0.981c0.648-0.539,1.22-1.254,1.61-1.998c5.028-9.593,8.404-19.668,8.821-30.59
					c0.024-0.675-0.098-1.389-0.307-2.032c-0.762-2.363,0.264-4.132,2.031-5.416c1.814-1.317,3.221,0.181,4.638,1.131
					c2.826,1.897,5.12,4.608,8.804,5.17c3.241,0.494,6.067,0.266,9.219-1.189c3.575-1.655,6.543-3.876,9.56-6.257
					c4.337-3.42,8.986-4.741,13.901-0.922c1.315,1.02,2.365,0.89,2.989-0.814c0.924-2.51,1.904-5.001,2.813-7.517
					c0.884-2.44,2.742-3.085,4.986-2.468c2.015,0.553,3.673,1.911,5.279,3.226c0.991,0.812,0.78,1.918,0.166,2.83
					c-3.24,4.798-4.032,10.361-5.243,15.838c-0.609,2.747-1.862,5.343-2.438,8.152c-0.22,1.068-0.711,2.084-0.613,3.232
					c0.031,0.342,0.124,0.829-0.054,1.015c-3.591,3.702,0.175,8.407-1.589,12.134c-1.459,3.073-1.274,6.306-2.131,9.391
					c-0.302,1.085-0.423,2.137,0.247,3.236c1.94,3.187,0.907,11.374-1.673,14.126c-1.098,1.174-1.985,1.014-2.498-0.444
					c-0.42-1.192-0.803-2.041-2.358-1.593c-0.965,0.28-1.284-0.667-1.604-1.367c-0.632-1.367-0.745-2.829-0.745-4.315
					c0.008-5.625,0.011-11.253-0.014-16.877c-0.003-0.736,0.268-1.764-0.682-2.03c-0.934-0.259-1.231,0.722-1.662,1.354
					c-4.976,7.316-10.047,7.989-17.799,6.442c-3.611-0.718-6.493-6.08-6.174-9.776C416.07,339.663,417.937,333.724,420.846,327.922z
					 M425.252,343.72c0.115,0.751,0.205,1.61,0.386,2.457c0.172,0.812-0.023,1.955,0.955,2.234c0.96,0.273,1.416-0.781,2.035-1.35
					c3.846-3.533,6.889-7.734,10.056-11.852c2.276-2.966,3.788-6.349,5.757-9.453c2.203-3.476,1.564-7.708-2.193-9.554
					c-1.528-0.751-2.622-0.117-3.464,1.268c-1.168,1.917-2.289,3.883-3.646,5.662c-2.882,3.775-5.96,7.442-7.148,12.157
					C427.271,338.135,425.304,340.553,425.252,343.72z"/>
				<path d="M74.609,310.484c1.008,1.053,1.881,1.965,1.072,3.303c-1.109,1.831-0.787,5.051-4.936,4.236
					c2.802,3.098,0.983,5.631-0.185,7.803c-2.061,3.821-2.826,8.075-4.591,11.969c-0.569,1.265-0.616,3.007-2.682,1.532
					c-0.567-0.404-0.978-0.07-1.148,0.529c-0.163,0.583-0.484,1.215-0.39,1.763c0.951,5.438-1.438,10.22-3.185,15.019
					c-3.482,9.559-8.04,18.544-15.802,25.517c-4.691,4.211-10.25,5.515-16.156,4.106c-4.175-0.999-6.198-4.74-7.649-8.568
					c-2.639-6.967-2.919-14.298-3.482-21.62c-0.545-7.085-0.811-14.159-0.661-21.249c0.151-7.156,1-14.262,1.763-21.373
					c0.439-4.117,0.485-8.264,1.249-12.37c1.121-6.007,2.024-12.063,2.877-18.119c0.433-3.072,0.602-6.188,0.794-9.289
					c0.127-2.053,0.715-3.554,3.104-3.647c1.526-0.06,2.728-1.03,4.081-1.575c3.227-1.3,4.767-0.225,4.833,3.146
					c0.06,2.982-0.646,5.85-1.249,8.715c-1.71,8.109-2.77,16.319-4.153,24.478c-2.641,15.564-2.003,31.211-1.748,46.837
					c0.105,6.601,1.153,13.249,3.239,19.619c0.375,1.144,0.845,2.29,1.477,3.304c2.464,3.954,3.812,4.119,7.03,0.842
					c4.849-4.939,7.144-11.348,9.921-17.478c7.67-16.938,13.764-34.521,21.29-51.52c4.764-10.756,9.649-21.445,15.844-31.464
					c2.499-4.039,5.354-7.885,8.913-11.092c3.314-2.989,7.112-3.647,11.294-1.956c1.609,0.654,1.573,1.833,0.379,2.472
					c-6.374,3.423-9.263,9.71-13.063,15.296c-3.467,5.096-5.859,10.686-8.443,16.226c-2.062,4.424-4.699,8.58-6.289,13.242
					C77.427,310.666,76.073,310.655,74.609,310.484z"/>
				<path d="M554.544,347.575c3.066-4.7,5.91-9.301,9.004-13.726c2.572-3.682,5.354-7.23,8.208-10.696
					c1.963-2.387,6.688-2.833,10.172-1.251c2.705,1.23,4.327,4.562,4.084,7.993c-0.436,6.118-1.056,12.233-0.808,18.384
					c0.077,1.908,0.052,4.609,1.61,5.053c1.4,0.4,2.656-2.116,3.471-3.701c2.646-5.139,6.927-9.058,10.121-13.784
					c1.002-1.486,2.299-1.34,2.922,0.305c0.791,2.086,1.199,4.193,0.013,6.462c-2.011,3.85-4.368,7.432-7.04,10.835
					c-0.534,0.68-1.168,1.37-0.793,2.327c1.542,3.925-1.718,5.632-3.751,7.724c-1.839,1.894-4.26,1.368-6.559,0.532
					c-6.585-2.395-8.558-7.966-9.213-14.068c-0.479-4.448-0.089-8.988-0.118-13.486c-0.005-0.749,0.297-1.8-0.494-2.138
					c-0.957-0.405-1.152,0.779-1.621,1.312c-4.758,5.401-8.227,11.713-12.392,17.528c-3.326,4.646-5.412,9.836-7.731,14.953
					c-0.034,0.076-0.066,0.16-0.102,0.24c-2.62,6.251-7.195,6.902-11.193,1.346c-1.829-2.544-0.887-5.749-0.445-8.589
					c2.225-14.27,6.794-27.945,10.804-41.763c1.32-4.549,2.162-9.237,3.256-13.854c0.405-1.718,1.237-3.207,3.271-3.048
					c1.938,0.157,2.453,1.812,3.122,3.376c1.739,4.083,0.365,7.992-0.442,11.927c-2.012,9.81-5.069,19.349-7.612,29.024
					C554.252,346.928,554.384,347.104,554.544,347.575z"/>
				<path d="M522.993,358.13c0-2.942-0.001-5.885,0.003-8.828c0-0.65,0.441-1.549-0.473-1.784c-0.782-0.203-1.158,0.657-1.5,1.225
					c-1.883,3.111-4.245,5.644-7.744,6.986c-5.836,2.243-12.303,0.344-15.56-4.544c-1.421-2.129-1.182-4.332-0.916-6.709
					c0.975-8.761,4.462-16.399,9.619-23.451c2.623-3.593,5.237-7.021,9.215-9.276c3.819-2.162,7.502-2.588,11.117,0.139
					c2.056,1.557,3.223,1.023,4.028-1.187c0.825-2.271,1.688-4.528,2.454-6.817c0.703-2.089,2.202-2.896,4.222-2.55
					c2.353,0.403,4.293,1.771,6.045,3.312c1.029,0.904,0.654,2.14,0.015,3.104c-4.483,6.759-4.199,15.046-7.202,22.243
					c-1.235,2.966-0.031,6.681-2.983,9.064c-0.427,0.344-0.4,1.124-0.099,1.718c1.705,3.356,0.381,6.311-0.471,9.68
					c-0.842,3.339-2.768,7.209-0.307,10.887c0.369,0.55,0.623,1.291,0.63,1.949c0.034,3.663-0.431,7.266-2.233,10.519
					c-1.183,2.132-2.172,2.067-3.396-0.024c-0.266-0.457-0.458-1.111-1.012-1.06c-3.062,0.276-3.106-2.171-3.24-3.965
					c-0.256-3.526-0.075-7.085-0.075-10.627C523.085,358.133,523.039,358.133,522.993,358.13z M506.47,342.982
					c0.152,1.51,0.261,2.802,0.418,4.089c0.072,0.596,0.149,1.277,0.822,1.502c0.719,0.24,1.056-0.398,1.48-0.816
					c5.137-5.05,9.293-10.884,13.618-16.604c1.393-1.846,1.477-4.162,2.983-5.832c2.403-2.667,0.478-8.592-3.045-9.342
					c-1.4-0.298-2.274,0.405-2.94,1.58c-0.979,1.727-1.821,3.59-3.092,5.079c-3.282,3.836-6.169,7.901-7.688,12.733
					C508.202,337.988,506.639,340.371,506.47,342.982z"/>
				<path d="M477.648,328.071c1.492-2.184,2.957-4.39,4.485-6.546c2.645-3.737,6.272-6.362,10.057-8.81
					c2.467-1.595,8.519-1.241,10.632,0.644c0.729,0.649,0.983,1.497,0.532,2.342c-0.596,1.125-1.271,2.683-2.733,2.385
					c-4.732-0.965-7.325,1.959-9.619,5.157c-6.238,8.7-10.553,18.354-13.985,28.471c-1.565,4.615-2.854,9.467-6.817,12.896
					c-1.589,1.375-3.124,2.147-5.131,0.988c-2.078-1.201-2.798-2.897-2.146-5.252c1.618-5.853,2.108-11.883,2.919-17.879
					c1.468-10.834,2.534-21.739,4.953-32.431c0.379-1.679,0.781-3.362,1.356-4.979c0.507-1.418,1.292-2.675,3.212-2.288
					c4.23,0.848,5.386,1.521,4.832,4.015c-0.748,3.377-0.665,6.851-1.532,10.175c-0.955,3.648,0.149,7.47-1.711,11.007
					C477.185,328.002,477.418,328.036,477.648,328.071z"/>
				<path d="M97.123,310.553c-1.797,0.064-3.669,0.366-4.984-1.363c-0.774-1.012-0.995-1.914,0.016-2.963
					c2.682-2.782,6.594-2.739,9.119,0.22c0.595,0.697,1.384,1.462,0.922,2.521c-0.449,1.036-1.382,1.515-2.488,1.573
					C98.847,310.587,97.982,310.553,97.123,310.553z"/>
				<path fill="none" d="M107.964,416.576c-1.035-8.804,2.456-16.445,7.224-23.952c3.296-5.188,7.36-9.412,11.686-13.665
					c6.749-6.644,14.622-11.392,22.907-15.652c0.565-0.288,1.153-1.057,1.834-0.409c0.542,0.517,0.334,1.343,0.198,1.99
					c-0.717,3.456-1.469,6.912-2.269,10.342c-1.549,6.631-2.948,13.359-5.856,19.566c-2.339,4.992-4.015,10.297-6.979,15
					c-0.276,0.437-0.512,0.903-0.722,1.374c-0.729,1.634-0.389,3.714-1.954,4.985c-5.238,4.242-8.985,10.324-15.939,12.472
					c-4.601,1.42-7.845-0.245-8.812-5.024C108.825,421.35,107.155,419.368,107.964,416.576z"/>
				<path fill="none" d="M123.138,349.479c0.508-5.305,1.785-10.48,4.585-15.08c2.938-4.829,6.095-9.543,9.685-13.937
					c0.674-0.824,1.38-1.763,2.527-1.447c1.026,0.282,1.195,1.48,1.329,2.353c0.316,2.047,0.408,4.05,2.116,5.648
					c0.904,0.85,0.268,2.173-0.613,2.705c-4.113,2.479-5.6,7.169-8.887,10.327c-3.159,3.035-6.262,6.128-9.401,9.184
					C124.176,349.528,123.804,349.787,123.138,349.479z"/>
				<path fill="none" d="M254.015,317.167c-1.195,4.711-3.327,9.157-6.754,12.936c-0.199,0.219-0.616,0.411-0.884,0.363
					c-0.554-0.103-0.541-0.627-0.423-1.042c1.389-4.921,3.416-9.526,6.714-13.499c0.218-0.263,0.485-0.585,0.84-0.373
					C254.017,315.854,253.955,316.435,254.015,317.167z"/>
				<path fill="none" d="M425.252,343.72c0.052-3.167,2.019-5.585,2.736-8.429c1.187-4.716,4.267-8.383,7.148-12.156
					c1.357-1.781,2.479-3.747,3.646-5.664c0.842-1.383,1.936-2.019,3.464-1.268c3.758,1.846,4.396,6.081,2.193,9.554
					c-1.969,3.104-3.48,6.487-5.757,9.453c-3.167,4.117-6.21,8.318-10.056,11.853c-0.619,0.568-1.075,1.624-2.035,1.351
					c-0.979-0.281-0.783-1.425-0.955-2.236C425.457,345.33,425.367,344.471,425.252,343.72z"/>
				<path fill="none" d="M506.47,342.982c0.169-2.611,1.732-4.994,2.558-7.612c1.518-4.831,4.405-8.896,7.688-12.733
					c1.271-1.488,2.112-3.352,3.092-5.08c0.666-1.176,1.54-1.877,2.94-1.579c3.522,0.751,5.448,6.676,3.045,9.341
					c-1.509,1.67-1.591,3.988-2.983,5.834c-4.325,5.721-8.481,11.555-13.618,16.604c-0.425,0.415-0.762,1.054-1.48,0.816
					c-0.673-0.225-0.75-0.906-0.822-1.502C506.73,345.784,506.622,344.49,506.47,342.982z"/>
			</g>
		</g>
	</g>
</g>
<g id="Layer_2_1_">
</g>
</svg>
